<svg xmlns="http://www.w3.org/2000/svg" viewBox="0 0 750 500"><g id="freepik--background-complete--inject-30"><path d="M720.28,125.93s-8.36-5.1-17.6,14.78S690.07,172,690.07,172s-2.49,4.18-5.39,1.61-7-10-11.76-8.48c-4.9,1.59-6.33,7.18-5.09,15.27s3.29,25.91,3.48,27.52-.65,4-2.91,2.52-15.46-15.11-21.58-8.46,1,28.62,1.78,31,.29,3.47-.85,4.12-5.14-4.37-9-8.11-9.11-7.38-12.31-3.25-3.68,20.83,13.15,47.31l8.6,11.76,14.57-1.34c31-4.76,43.26-16.1,44.26-21.23s-5.16-6.65-10.54-7.13-11.8-.21-12.06-1.49.24-2.31,2.55-3.34,23.54-10.11,24.53-19.1-18-9.91-20.57-10.67-1.33-2.94,0-3.85,16.11-11.1,23-15.49S724,192.05,722,187.31c-2-4.57-10.27-2.77-14.12-3.27s-2.33-5.12-2.33-5.12,6.37-10,15.25-30.07-.71-23-.71-23" style="fill:#8e81dc"></path><path d="M712,143.72s-.05.15-.17.43-.3.72-.52,1.25l-2.06,4.75c-1.8,4.13-4.44,10.09-7.73,17.44-6.58,14.7-15.84,34.92-26.14,57.22S655.74,267.33,649.08,282l-7.87,17.37-2.14,4.72c-.25.52-.44.93-.57,1.22a4.43,4.43,0,0,1-.21.41,3.57,3.57,0,0,1,.16-.43c.13-.3.3-.71.52-1.24.48-1.11,1.18-2.71,2.06-4.76,1.8-4.13,4.44-10.08,7.73-17.43,6.58-14.7,15.84-34.92,26.14-57.23s19.61-42.51,26.27-57.17c3.32-7.31,6-13.24,7.87-17.36l2.15-4.72c.24-.53.43-.93.57-1.23S712,143.72,712,143.72Z" style="fill:#292449"></path><path d="M678.27,175.77a4.14,4.14,0,0,1,.41,1c.24.63.55,1.56.93,2.71.74,2.31,1.69,5.51,2.67,9.07l2.47,9.12c.3,1.09.55,2,.76,2.76a3.83,3.83,0,0,1,.23,1,4.14,4.14,0,0,1-.41-1c-.24-.63-.55-1.56-.92-2.72-.72-2.31-1.63-5.53-2.61-9.09l-2.53-9.1-.77-2.75A4.51,4.51,0,0,1,678.27,175.77Z" style="fill:#292449"></path><path d="M687.09,201.64c0-.13,6.48-2.38,14.57-5s14.69-4.69,14.73-4.56-6.48,2.38-14.57,5S687.13,201.77,687.09,201.64Z" style="fill:#292449"></path><path d="M669.72,235.18a5.3,5.3,0,0,1,1.08-.09l2.92-.1c2.46-.09,5.87-.22,9.62-.51s7.14-.63,9.6-.91l2.9-.33a4.21,4.21,0,0,1,1.08-.06,5,5,0,0,1-1,.25c-.68.13-1.67.3-2.89.48-2.44.37-5.84.79-9.6,1.07s-7.18.36-9.66.35c-1.23,0-2.23,0-2.92-.05A4.15,4.15,0,0,1,669.72,235.18Z" style="fill:#292449"></path><path d="M656.6,213.54a4.06,4.06,0,0,1,.6.79c.36.52.88,1.29,1.5,2.25,1.25,1.91,2.94,4.57,4.78,7.52s3.49,5.64,4.66,7.6c.59,1,1.05,1.78,1.36,2.34a3.73,3.73,0,0,1,.45.89,3.44,3.44,0,0,1-.61-.79c-.36-.53-.87-1.29-1.5-2.25-1.24-1.91-2.93-4.57-4.78-7.53s-3.49-5.64-4.66-7.6c-.58-1-1-1.78-1.36-2.33A4.13,4.13,0,0,1,656.6,213.54Z" style="fill:#292449"></path><path d="M637.5,241.2a5.93,5.93,0,0,1,.77,1l1.93,2.88c1.6,2.44,3.8,5.83,6.2,9.59s4.55,7.19,6.08,9.68l1.8,3a7.18,7.18,0,0,1,.6,1.12,6.06,6.06,0,0,1-.77-1l-1.92-2.88c-1.61-2.45-3.81-5.84-6.21-9.6s-4.54-7.19-6.08-9.68c-.72-1.18-1.32-2.18-1.79-3A6,6,0,0,1,637.5,241.2Z" style="fill:#292449"></path><path d="M654.65,267.69a6.42,6.42,0,0,1,1.35-.16l3.7-.26c3.12-.22,7.44-.54,12.19-1s9-1,12.15-1.43l3.67-.49a7.58,7.58,0,0,1,1.36-.12,6.76,6.76,0,0,1-1.33.31c-.86.17-2.11.39-3.65.64-3.1.51-7.39,1.11-12.15,1.59s-9.09.75-12.22.88c-1.57.06-2.83.1-3.71.1A8,8,0,0,1,654.65,267.69Z" style="fill:#292449"></path><path d="M124.79,224.43c23.33-15.57,29-45,28.53-71.59-.09-4.44.48-9.1-1.6-13s-7-6.66-11.07-4.85c-3.35,1.5-4.87,5.31-6.78,8.45a26.23,26.23,0,0,1-10.69,9.77c-2.88,1.42-6.43,2.26-9.23.68-3.84-2.16-4.22-7.45-4.12-11.86l.54-24.64c.09-4.41.18-8.91-1.15-13.12s-4.33-8.13-8.56-9.37-9.52,1.1-10.49,5.4c-.4,1.79-.06,3.66-.21,5.49s-1,3.84-2.82,4.32-3.55-.79-4.87-2.09c-4.54-4.53-7.58-10.3-10.41-16s-5.59-11.63-9.69-16.54-9.84-8.85-16.23-9.31-13.26,3.35-15,9.52,1.86,12.55,5.78,17.64A99.14,99.14,0,0,0,57.19,113.1c1.4,1,2.9,2.09,3.42,3.73.92,3-1.94,5.83-4.9,6.76-3.35,1-7,.65-10.44,1s-7.29,1.81-8.66,5c-1.89,4.48,1.85,9.26,5.56,12.41a85.7,85.7,0,0,0,25,14.77c3.27,1.24,6.71,2.33,9.32,4.65s4.16,6.3,2.51,9.38-5.78,4-9.21,3.34-6.48-2.57-9.74-3.84c-6.11-2.38-14-2.08-18.05,3.1-2.64,3.4-2.94,8.19-1.7,12.31s3.84,7.69,6.6,11c9.66,11.54,22.12,20.9,36.28,26s27.33,6.6,41.56,1.7" style="fill:#8e81dc"></path><path d="M123,224.94c-3.75-13.45-14-45.1-20.15-60l-4.57-11c-1.51-3.61-3-7.18-4.69-10.59a197.94,197.94,0,0,0-10.8-19c-3.74-5.9-7.5-11.36-11-16.45s-7-9.74-10.28-13.87a157.36,157.36,0,0,0-17-18.31c-2.17-2-3.9-3.5-5.09-4.5L38,70c-.31-.25-.48-.37-.48-.37s.14.15.43.42l1.32,1.18c1.15,1,2.86,2.56,5,4.59a167,167,0,0,1,16.8,18.41c3.26,4.14,6.64,8.82,10.19,13.9s7.27,10.56,11,16.45a198.47,198.47,0,0,1,10.73,19c1.67,3.4,3.16,7,4.67,10.57s3,7.29,4.57,11c6.11,14.88,16.39,46.5,20.17,59.91" style="fill:#292449"></path><path d="M93.38,143.28a10,10,0,0,0,.44-1.88c.24-1.22.54-3,.88-5.18.69-4.38,1.44-10.46,2.25-17.17s1.66-12.76,2.44-17.12c.38-2.18.71-3.94,1-5.15a11.48,11.48,0,0,0,.31-1.9,10.1,10.1,0,0,0-.56,1.84c-.33,1.2-.73,3-1.17,5.13C98,106.19,97.1,112.26,96.29,119s-1.51,12.67-2.05,17.19c-.27,2.1-.5,3.85-.68,5.2A11.22,11.22,0,0,0,93.38,143.28Z" style="fill:#292449"></path><path d="M36.12,131.83a2.13,2.13,0,0,0,.59.1l1.7.17c1.48.15,3.61.35,6.23.68,5.25.62,12.48,1.75,20.4,3.34s15,3.38,20.1,4.81c2.55.7,4.6,1.32,6,1.74l1.64.48a2,2,0,0,0,.58.13,2,2,0,0,0-.54-.25c-.44-.17-1-.37-1.6-.6-1.39-.5-3.43-1.2-6-2-5.07-1.55-12.17-3.4-20.1-5S50,132.82,44.69,132.31c-2.63-.27-4.78-.4-6.26-.46l-1.71,0A2.41,2.41,0,0,0,36.12,131.83Z" style="fill:#292449"></path><path d="M117.42,206.63a4,4,0,0,0,.39-.69l1-2c.86-1.78,2-4.38,3.48-7.61,2.86-6.45,6.53-15.49,10.46-25.51S140.27,151.7,143,145.2l3.28-7.68c.36-.86.66-1.55.89-2.09a4.24,4.24,0,0,0,.27-.75,2.84,2.84,0,0,0-.39.69l-1,2c-.86,1.78-2.05,4.38-3.47,7.6-2.86,6.46-6.54,15.5-10.46,25.52s-7.53,19.08-10.28,25.58l-3.28,7.68-.88,2.09A3.4,3.4,0,0,0,117.42,206.63Z" style="fill:#292449"></path><path d="M41.49,181.22a4,4,0,0,0,.75.3l2.21.75L52.59,185c6.87,2.3,16.32,5.59,26.75,9.25s19.92,6.88,26.83,9.07c3.45,1.09,6.26,1.95,8.2,2.51l2.25.63a3.89,3.89,0,0,0,.8.18,4.27,4.27,0,0,0-.76-.31l-2.21-.75-8.14-2.71c-6.87-2.3-16.32-5.59-26.75-9.25s-19.91-6.89-26.82-9.07c-3.46-1.09-6.26-1.95-8.21-2.51l-2.24-.64A4.19,4.19,0,0,0,41.49,181.22Z" style="fill:#292449"></path><path d="M508.76,70.37H634.83L610.17,87.9v14.64a27.28,27.28,0,0,1-27.48,27.07H503.58a27.28,27.28,0,0,1-27.48-27.07h0A32.41,32.41,0,0,1,508.76,70.37Z" style="fill:#8e81dc"></path><path d="M588.9,89.94c0,.14-21,.26-47,.26s-47-.12-47-.26,21-.26,47-.26S588.9,89.79,588.9,89.94Z" style="fill:#292449"></path><path d="M588.9,99.68c0,.14-21,.26-47,.26s-47-.12-47-.26,21-.26,47-.26S588.9,99.53,588.9,99.68Z" style="fill:#292449"></path><path d="M317.49,370.42H168.31L192.61,388v34.5a7.2,7.2,0,0,0,7.21,7.2H317.49a7.2,7.2,0,0,0,7.21-7.2V377.62A7.21,7.21,0,0,0,317.49,370.42Z" style="fill:#8e81dc"></path><path d="M311.27,394.8c0,.15-22.5.26-50.25.26s-50.25-.11-50.25-.26,22.49-.26,50.25-.26S311.27,394.66,311.27,394.8Z" style="fill:#292449"></path><path d="M311.27,408.05c0,.14-22.5.26-50.25.26s-50.25-.12-50.25-.26,22.49-.26,50.25-.26S311.27,407.91,311.27,408.05Z" style="fill:#292449"></path></g></svg>