<svg xmlns="http://www.w3.org/2000/svg" viewBox="0 0 750 500"><g id="freepik--speech-bubble--inject-30"><path d="M440.47,140.89a3.5,3.5,0,1,0,3.5-3.5A3.5,3.5,0,0,0,440.47,140.89Z" style="fill:#8e81dc"></path><circle cx="429.96" cy="140.89" r="3.5" style="fill:#8e81dc"></circle><path d="M412.49,139.14a3.5,3.5,0,1,0,4.78-1.28A3.49,3.49,0,0,0,412.49,139.14Z" style="fill:#8e81dc"></path><path d="M429.74,100a4.67,4.67,0,0,0-.7,0l-2.08.06c-.46,0-1,0-1.54.07l-1.83.26-2.14.31-2.4.59a38.67,38.67,0,0,0-11.59,5,41,41,0,0,0-18.8,30.76,43.57,43.57,0,0,0-.11,5.61c.07.94.05,1.91.19,2.86s.29,1.92.43,2.89a41.14,41.14,0,0,0,3.9,11.41,43.89,43.89,0,0,0,7.45,10.26,43,43,0,0,0,10.74,7.71,39,39,0,0,0,13.09,4,26.93,26.93,0,0,0,3.49.29,31.9,31.9,0,0,0,3.53.07,42.34,42.34,0,0,0,7.06-.89,41.39,41.39,0,0,0,14.07-5.93l-.42.05,14.33,5.75.85.34-.24-.88-4.22-15.32-.07.37a41.07,41.07,0,0,0,7.65-17.5,37.44,37.44,0,0,0,.56-9,30.41,30.41,0,0,0-.41-4.31q-.16-1.06-.33-2.1c-.12-.69-.33-1.36-.5-2a41,41,0,0,0-16-23.31,39.27,39.27,0,0,0-9.51-5l-2.15-.77-2-.52-1.86-.46c-.6-.11-1.18-.17-1.72-.26-1.08-.13-2-.32-2.87-.36l-2.1-.07-1.29,0a3,3,0,0,0-.44,0,1.29,1.29,0,0,0,.44.06l1.28.11,2.09.14c.83.06,1.77.27,2.85.43A40.78,40.78,0,0,1,469,131c.15.66.36,1.32.48,2s.2,1.36.31,2.06a29.3,29.3,0,0,1,.38,4.23,37,37,0,0,1-.58,8.79A40.51,40.51,0,0,1,462,165.18l-.13.17.06.21q2,7.42,4.18,15.33l.61-.54-14.33-5.77-.22-.09-.21.13a40.21,40.21,0,0,1-20.66,6.66,33,33,0,0,1-3.45-.06,25.71,25.71,0,0,1-3.41-.29,38.21,38.21,0,0,1-12.8-3.91,42.49,42.49,0,0,1-10.52-7.53,43.12,43.12,0,0,1-7.32-10A40.6,40.6,0,0,1,390,148.3c-.15-1-.3-1.89-.44-2.83s-.12-1.88-.19-2.81a41.92,41.92,0,0,1,.08-5.5,40.49,40.49,0,0,1,18.31-30.39,39,39,0,0,1,11.41-5.14l2.36-.63,2.12-.35,1.82-.3c.56-.06,1.07-.08,1.52-.11l2.07-.15A3.27,3.27,0,0,0,429.74,100Z" style="fill:#8e81dc"></path></g></svg>