<svg xmlns="http://www.w3.org/2000/svg" viewBox="0 0 500 500"><g id="freepik--Desk--inject-2"><rect x="78.73" y="260.2" width="358.54" height="12.75" style="fill:#263238"></rect><rect x="78.73" y="267.97" width="358.54" height="4.98" style="fill:#455a64"></rect><polygon points="91.59 451.85 86.44 451.85 101.44 272.95 114.59 272.95 91.59 451.85" style="fill:#455a64"></polygon><polygon points="114.59 272.95 113.05 284.92 100.44 284.92 101.44 272.95 114.59 272.95" style="fill:#263238"></polygon><polygon points="424.41 451.85 429.56 451.85 414.56 272.95 401.41 272.95 424.41 451.85" style="fill:#455a64"></polygon><polygon points="401.41 272.95 402.95 284.92 415.56 284.92 414.56 272.95 401.41 272.95" style="fill:#263238"></polygon></g><g id="freepik--Device--inject-2"><polygon points="221.78 260.19 165.04 260.19 165.04 255.78 221.78 253.94 221.78 260.19" style="fill:#455a64"></polygon><path d="M266.37,260.11H229c-3.2,0,1.42-9.09,13.08-12.58S270.05,256.7,266.37,260.11Z" style="fill:#37474f"></path><path d="M251.69,260.11A9.38,9.38,0,0,1,252,257a12,12,0,0,1,1.23-2.91,9.77,9.77,0,0,1,2.06-2.42,7.65,7.65,0,0,1,2.75-1.51,19,19,0,0,0-2.21,2.07,15.61,15.61,0,0,0-1.74,2.38A27,27,0,0,0,251.69,260.11Z" style="fill:#263238"></path><path d="M256.12,251.46a16,16,0,0,1,3.31,1.16,20.21,20.21,0,0,1,3.06,1.76,12.06,12.06,0,0,1,2.61,2.44,5.18,5.18,0,0,1,1.27,3.29,7.1,7.1,0,0,0-1.86-2.78,19.78,19.78,0,0,0-2.6-2.13C260.07,253.87,258.09,252.72,256.12,251.46Z" style="fill:#263238"></path><polygon points="293.23 242.5 202.24 242.5 216.71 174.76 307.7 174.76 293.23 242.5" style="fill:#455a64"></polygon><polygon points="296.6 242.5 205.61 242.5 220.08 174.76 311.07 174.76 296.6 242.5" style="fill:#37474f"></polygon><polygon points="247.52 218.22 245.39 218.22 248.63 203.02 250.76 203.02 247.52 218.22" style="fill:#263238"></polygon><polygon points="251.73 218.22 249.6 218.22 252.84 203.02 254.97 203.02 251.73 218.22" style="fill:#263238"></polygon><polygon points="255.94 218.22 253.81 218.22 257.05 203.02 259.18 203.02 255.94 218.22" style="fill:#263238"></polygon><polygon points="260.16 218.22 258.02 218.22 261.26 203.02 263.39 203.02 260.16 218.22" style="fill:#263238"></polygon><polygon points="264.37 218.22 262.23 218.22 265.47 203.02 267.61 203.02 264.37 218.22" style="fill:#263238"></polygon><polygon points="268.58 218.22 266.44 218.22 269.68 203.02 271.82 203.02 268.58 218.22" style="fill:#263238"></polygon><polygon points="272.79 218.22 270.65 218.22 273.89 203.02 276.03 203.02 272.79 218.22" style="fill:#263238"></polygon><polygon points="270.87 260.2 226.11 260.2 226.11 256.72 270.87 255.27 270.87 260.2" style="fill:#455a64"></polygon><polygon points="283.03 260.19 259 260.19 244.53 222.23 268.56 222.23 283.03 260.19" style="fill:#455a64"></polygon><polygon points="286.99 260.19 262.96 260.19 248.49 222.23 272.52 222.23 286.99 260.19" style="fill:#263238"></polygon></g></svg>