<svg xmlns="http://www.w3.org/2000/svg" viewBox="0 0 500 500"><g id="freepik--Windows--inject-2"><rect x="332.06" y="55.78" width="106.3" height="76.25" style="fill:#fff"></rect><path d="M438.61,132.28H331.81V55.53h106.8Zm-106.3-.5h105.8V56H332.31Z" style="fill:#ebebeb"></path><rect x="332.06" y="55.78" width="106.3" height="9.3" style="fill:#984CFF"></rect><path d="M438.61,65.33H331.81v-9.8h106.8Zm-106.3-.5h105.8V56H332.31Z" style="fill:#ebebeb"></path><path d="M340.79,60.5a2.34,2.34,0,1,1-2.34-2.34A2.34,2.34,0,0,1,340.79,60.5Z" style="fill:#263238"></path><path d="M350.35,60.5A2.34,2.34,0,1,1,348,58.16,2.34,2.34,0,0,1,350.35,60.5Z" style="fill:#ebebeb"></path><path d="M359.91,60.5a2.34,2.34,0,1,1-2.34-2.34A2.34,2.34,0,0,1,359.91,60.5Z" style="fill:#455a64"></path><rect x="332.06" y="64.58" width="106.3" height="1" style="fill:#ebebeb"></rect><rect x="341.76" y="79.68" width="3.42" height="1.25" style="fill:#ebebeb"></rect><rect x="347.66" y="79.68" width="42.27" height="1.25" style="fill:#ebebeb"></rect><rect x="392.03" y="79.68" width="7.49" height="1.25" style="fill:#984CFF"></rect><rect x="403.42" y="96.37" width="6.49" height="1.25" style="fill:#ebebeb"></rect><rect x="400.93" y="79.68" width="21.87" height="1.25" style="fill:#a6a6a6"></rect><rect x="345.17" y="83.01" width="3.42" height="1.25" style="fill:#ebebeb"></rect><rect x="350.99" y="83.01" width="33.71" height="1.25" style="fill:#a6a6a6"></rect><rect x="391.15" y="96.37" width="10.73" height="1.25" style="fill:#a6a6a6"></rect><rect x="347.66" y="93.03" width="24.56" height="1.25" style="fill:#a6a6a6"></rect><rect x="350.99" y="86.35" width="17.23" height="1.25" style="fill:#984CFF"></rect><rect x="397.37" y="89.69" width="17.23" height="1.25" style="fill:#a6a6a6"></rect><rect x="370.14" y="86.35" width="31.6" height="1.25" style="fill:#a6a6a6"></rect><rect x="347.66" y="96.37" width="41.26" height="1.25" style="fill:#984CFF"></rect><rect x="400.21" y="83.01" width="28.46" height="1.25" style="fill:#984CFF"></rect><rect x="386.32" y="83.01" width="12.48" height="1.25" style="fill:#ebebeb"></rect><rect x="413.69" y="86.35" width="11.06" height="1.25" style="fill:#ebebeb"></rect><rect x="345.17" y="86.35" width="3.42" height="1.25" style="fill:#ebebeb"></rect><rect x="341.76" y="89.69" width="3.42" height="1.25" style="fill:#a6a6a6"></rect><rect x="347.66" y="89.69" width="20.19" height="1.25" style="fill:#ebebeb"></rect><rect x="350.99" y="99.71" width="20.19" height="1.25" style="fill:#ebebeb"></rect><rect x="391.72" y="103.05" width="27" height="1.25" style="fill:#984CFF"></rect><rect x="372.82" y="99.71" width="23.33" height="1.25" style="fill:#984CFF"></rect><rect x="369.25" y="103.05" width="20.71" height="1.25" style="fill:#ebebeb"></rect><rect x="350.99" y="103.05" width="5.84" height="1.25" style="fill:#a6a6a6"></rect><rect x="373.61" y="93.03" width="25.91" height="1.25" style="fill:#ebebeb"></rect><rect x="400.93" y="93.03" width="24.54" height="1.25" style="fill:#984CFF"></rect><rect x="369.9" y="89.69" width="24.88" height="1.25" style="fill:#984CFF"></rect><rect x="341.76" y="93.03" width="3.42" height="1.25" style="fill:#ebebeb"></rect><rect x="341.76" y="96.37" width="3.42" height="1.25" style="fill:#ebebeb"></rect><rect x="345.17" y="99.71" width="3.42" height="1.25" style="fill:#a6a6a6"></rect><rect x="345.17" y="103.05" width="3.42" height="1.25" style="fill:#ebebeb"></rect><rect x="341.76" y="105.85" width="3.42" height="1.25" style="fill:#ebebeb"></rect><rect x="347.66" y="105.85" width="48.05" height="1.25" style="fill:#ebebeb"></rect><rect x="345.17" y="109.18" width="3.42" height="1.25" style="fill:#ebebeb"></rect><rect x="350.99" y="109.18" width="33.71" height="1.25" style="fill:#a6a6a6"></rect><rect x="347.66" y="119.2" width="24.56" height="1.25" style="fill:#a6a6a6"></rect><rect x="350.99" y="112.52" width="17.23" height="1.25" style="fill:#984CFF"></rect><rect x="370.14" y="112.52" width="31.6" height="1.25" style="fill:#a6a6a6"></rect><rect x="347.66" y="122.54" width="41.26" height="1.25" style="fill:#984CFF"></rect><rect x="400.21" y="109.18" width="28.46" height="1.25" style="fill:#984CFF"></rect><rect x="386.32" y="109.18" width="12.48" height="1.25" style="fill:#ebebeb"></rect><rect x="413.69" y="112.52" width="11.06" height="1.25" style="fill:#ebebeb"></rect><rect x="345.17" y="112.52" width="3.42" height="1.25" style="fill:#ebebeb"></rect><rect x="341.76" y="115.86" width="3.42" height="1.25" style="fill:#a6a6a6"></rect><rect x="347.66" y="115.86" width="20.19" height="1.25" style="fill:#ebebeb"></rect><rect x="373.61" y="119.2" width="25.91" height="1.25" style="fill:#ebebeb"></rect><rect x="369.9" y="115.86" width="24.88" height="1.25" style="fill:#984CFF"></rect><rect x="341.76" y="119.2" width="3.42" height="1.25" style="fill:#ebebeb"></rect><path d="M343.87,76.39a.3.3,0,1,1-.42.42l-1.32-1.33,0,0h0a.08.08,0,0,1,0,0,0,0,0,0,1,0,0,0,0,0,0,0,0,0v-.14s0,0,0,0a0,0,0,0,0,0,0h0s0,0,0-.05h0l0,0,1.32-1.33a.3.3,0,0,1,.42.42l-1.11,1.12Z" style="fill:#984CFF"></path><path d="M345.06,76.54l1.15-2.73a.25.25,0,0,1,.34-.14.26.26,0,0,1,.14.33l-1.15,2.74a.27.27,0,0,1-.24.16l-.1,0A.27.27,0,0,1,345.06,76.54Z" style="fill:#984CFF"></path><path d="M349,75.44h0l0,0-1.32,1.33a.3.3,0,0,1-.21.09.3.3,0,0,1-.21-.51l1.11-1.12-1.11-1.12a.3.3,0,1,1,.42-.42l1.32,1.33,0,0h0l0,.05h0s0,0,0,0h0v.12h0s0,0,0,0v0S349,75.42,349,75.44Z" style="fill:#984CFF"></path><polygon points="432.87 253.81 431.67 253.81 431.67 253 432.07 253 432.07 252.6 432.87 252.6 432.87 253.81" style="fill:#ebebeb"></polygon><path d="M430.07,253.81h-1.61V253h1.61Zm-3.21,0h-1.6V253h1.6Zm-3.2,0h-1.6V253h1.6Zm-3.21,0h-1.6V253h1.6Zm-3.2,0h-1.6V253h1.6Zm-3.2,0h-1.61V253h1.61Zm-3.21,0h-1.6V253h1.6Zm-3.2,0H406V253h1.6Zm-3.21,0h-1.6V253h1.6Zm-3.2,0h-1.6V253h1.6Zm-3.2,0h-1.61V253H398Zm-3.21,0h-1.6V253h1.6Zm-3.2,0H390V253h1.6Zm-3.21,0h-1.6V253h1.6Zm-3.2,0h-1.6V253h1.6Zm-3.2,0h-1.6V253H382Zm-3.21,0h-1.6V253h1.6Z" style="fill:#ebebeb"></path><polygon points="375.6 253.81 374.4 253.81 374.4 252.6 375.2 252.6 375.2 253 375.6 253 375.6 253.81" style="fill:#ebebeb"></polygon><path d="M375.2,251h-.8v-1.6h.8Zm0-3.2h-.8v-1.6h.8Zm0-3.21h-.8V243h.8Zm0-3.2h-.8v-1.6h.8Zm0-3.2h-.8v-1.61h.8Zm0-3.21h-.8v-1.6h.8Zm0-3.2h-.8v-1.6h.8Zm0-3.2h-.8V227h.8Zm0-3.21h-.8v-1.6h.8Zm0-3.2h-.8v-1.6h.8Zm0-3.21h-.8v-1.6h.8Zm0-3.2h-.8v-1.6h.8Zm0-3.2h-.8V211h.8Zm0-3.21h-.8v-1.6h.8Zm0-3.2h-.8v-1.6h.8Zm0-3.21h-.8v-1.6h.8Zm0-3.2h-.8v-1.6h.8Z" style="fill:#ebebeb"></path><polygon points="375.2 196.54 374.4 196.54 374.4 195.33 375.6 195.33 375.6 196.14 375.2 196.14 375.2 196.54" style="fill:#ebebeb"></polygon><path d="M430.07,196.14h-1.61v-.81h1.61Zm-3.21,0h-1.6v-.81h1.6Zm-3.2,0h-1.6v-.81h1.6Zm-3.21,0h-1.6v-.81h1.6Zm-3.2,0h-1.6v-.81h1.6Zm-3.2,0h-1.61v-.81h1.61Zm-3.21,0h-1.6v-.81h1.6Zm-3.2,0H406v-.81h1.6Zm-3.21,0h-1.6v-.81h1.6Zm-3.2,0h-1.6v-.81h1.6Zm-3.2,0h-1.61v-.81H398Zm-3.21,0h-1.6v-.81h1.6Zm-3.2,0H390v-.81h1.6Zm-3.2,0h-1.61v-.81h1.61Zm-3.21,0h-1.6v-.81h1.6Zm-3.2,0h-1.6v-.81H382Zm-3.21,0h-1.6v-.81h1.6Z" style="fill:#ebebeb"></path><polygon points="432.87 196.54 432.07 196.54 432.07 196.14 431.67 196.14 431.67 195.33 432.87 195.33 432.87 196.54" style="fill:#ebebeb"></polygon><path d="M432.87,251h-.8v-1.6h.8Zm0-3.2h-.8v-1.6h.8Zm0-3.2h-.8V243h.8Zm0-3.21h-.8v-1.6h.8Zm0-3.2h-.8v-1.6h.8Zm0-3.21h-.8v-1.6h.8Zm0-3.2h-.8v-1.6h.8Zm0-3.2h-.8V227h.8Zm0-3.21h-.8v-1.6h.8Zm0-3.2h-.8v-1.6h.8Zm0-3.21h-.8v-1.6h.8Zm0-3.2h-.8v-1.6h.8Zm0-3.2h-.8V211h.8Zm0-3.21h-.8v-1.6h.8Zm0-3.2h-.8v-1.6h.8Zm0-3.21h-.8v-1.6h.8Zm0-3.2h-.8v-1.6h.8Z" style="fill:#ebebeb"></path><rect x="371.2" y="249.81" width="7.19" height="7.19" style="fill:#fff"></rect><path d="M378.79,257.4h-8v-8h8Zm-7.18-.8H378v-6.39h-6.38Z" style="fill:#ebebeb"></path><rect x="371.23" y="220.98" width="7.19" height="7.19" style="fill:#fff"></rect><path d="M378.79,228.56h-8v-8h8Zm-7.18-.8H378v-6.38h-6.38Z" style="fill:#ebebeb"></path><rect x="371.23" y="192.14" width="7.19" height="7.19" style="fill:#fff"></rect><path d="M378.79,199.73h-8v-8h8Zm-7.18-.8H378v-6.39h-6.38Z" style="fill:#ebebeb"></path><rect x="428.91" y="249.81" width="7.19" height="7.19" style="fill:#fff"></rect><path d="M436.46,257.4h-8v-8h8Zm-7.18-.8h6.38v-6.39h-6.38Z" style="fill:#ebebeb"></path><rect x="428.91" y="220.98" width="7.19" height="7.19" style="fill:#fff"></rect><path d="M436.46,228.56h-8v-8h8Zm-7.18-.8h6.38v-6.38h-6.38Z" style="fill:#ebebeb"></path><rect x="428.91" y="192.14" width="7.19" height="7.19" style="fill:#fff"></rect><path d="M436.46,199.73h-8v-8h8Zm-7.18-.8h6.38v-6.39h-6.38Z" style="fill:#ebebeb"></path><rect x="400.07" y="192.14" width="7.19" height="7.19" style="fill:#fff"></rect><path d="M407.63,199.73h-8v-8h8Zm-7.19-.8h6.39v-6.39h-6.39Z" style="fill:#ebebeb"></path><rect x="400.04" y="249.81" width="7.19" height="7.19" style="fill:#fff"></rect><path d="M407.63,257.4h-8v-8h8Zm-7.19-.8h6.39v-6.39h-6.39Z" style="fill:#ebebeb"></path><rect x="296.92" y="118.57" width="97.3" height="124.25" style="fill:#fff"></rect><path d="M394.47,243.07h-97.8V118.32h97.8Zm-97.3-.5H394V118.82h-96.8Z" style="fill:#ebebeb"></path><rect x="296.92" y="118.57" width="97.3" height="9.3" style="fill:#984CFF"></rect><path d="M394.47,128.12h-97.8v-9.8h97.8Zm-97.3-.5H394v-8.8h-96.8Z" style="fill:#ebebeb"></path><path d="M305.65,123.29a2.34,2.34,0,1,1-2.34-2.34A2.34,2.34,0,0,1,305.65,123.29Z" style="fill:#263238"></path><path d="M315.21,123.29a2.34,2.34,0,1,1-2.34-2.34A2.34,2.34,0,0,1,315.21,123.29Z" style="fill:#ebebeb"></path><path d="M324.77,123.29a2.34,2.34,0,1,1-2.34-2.34A2.34,2.34,0,0,1,324.77,123.29Z" style="fill:#455a64"></path><rect x="296.92" y="127.37" width="97.3" height="1" style="fill:#ebebeb"></rect><rect x="303.7" y="214.56" width="47.73" height="4.46" style="fill:#c7c7c7"></rect><rect x="303.7" y="223.22" width="83.74" height="2.69" style="fill:#ebebeb"></rect><rect x="303.7" y="228.35" width="83.74" height="2.69" style="fill:#ebebeb"></rect><rect x="303.7" y="233.47" width="83.74" height="2.69" style="fill:#ebebeb"></rect><rect x="303.77" y="133.43" width="83.59" height="75.64" transform="translate(691.14 342.49) rotate(180)" style="fill:#fff"></rect><path d="M387.62,209.32h-84.1V133.18h84.1Zm-83.6-.5h83.1V133.68H304Z" style="fill:#ebebeb"></path><line x1="303.77" y1="133.43" x2="387.37" y2="209.07" style="fill:#fff"></line><rect x="345.32" y="114.88" width="0.5" height="112.73" transform="translate(-13.27 312.6) rotate(-47.86)" style="fill:#ebebeb"></rect><line x1="387.37" y1="133.43" x2="303.77" y2="209.07" style="fill:#fff"></line><rect x="289.2" y="171" width="112.73" height="0.5" transform="translate(-25.55 276.21) rotate(-42.15)" style="fill:#ebebeb"></rect><rect x="145.16" y="46.95" width="97.3" height="64.25" style="fill:#fff"></rect><path d="M242.71,111.45h-97.8V46.7h97.8Zm-97.3-.5h96.8V47.2h-96.8Z" style="fill:#ebebeb"></path><rect x="145.16" y="46.95" width="97.3" height="9.3" style="fill:#984CFF"></rect><path d="M242.71,56.5h-97.8V46.7h97.8Zm-97.3-.5h96.8V47.2h-96.8Z" style="fill:#ebebeb"></path><path d="M153.89,51.66a2.34,2.34,0,1,1-2.34-2.34A2.34,2.34,0,0,1,153.89,51.66Z" style="fill:#263238"></path><path d="M163.45,51.66a2.34,2.34,0,1,1-2.34-2.34A2.34,2.34,0,0,1,163.45,51.66Z" style="fill:#ebebeb"></path><path d="M173,51.66a2.34,2.34,0,1,1-2.34-2.34A2.34,2.34,0,0,1,173,51.66Z" style="fill:#455a64"></path><rect x="145.16" y="55.75" width="97.3" height="1" style="fill:#ebebeb"></rect><path d="M179.22,92.81a2.63,2.63,0,0,1,0,3.72,2.67,2.67,0,0,1-1.82.74,2.79,2.79,0,0,1-1.9-.74L163.89,84.75c-.13,0-.17-.12-.21-.25a.58.58,0,0,0-.12-.08,1,1,0,0,1-.13-.33.23.23,0,0,1-.12-.17c0-.08,0-.2-.08-.25s-.09-.16-.09-.2v-.29c0-.08,0-.13,0-.25s0-.16,0-.21v-.29c0-.08.09-.12.09-.16s0-.21.08-.33,0,0,0-.08a2.24,2.24,0,0,1,.21-.38.08.08,0,0,1,.08-.08.72.72,0,0,1,.25-.29L175.5,69.33a2.7,2.7,0,0,1,3.72,0,2.63,2.63,0,0,1,0,3.72l-9.79,9.88Z" style="fill:#ebebeb"></path><path d="M189.76,94.13,199.88,70a2.29,2.29,0,0,1,3-1.2,2.23,2.23,0,0,1,1.16,2.93L193.93,95.91a2.28,2.28,0,0,1-2.1,1.36,2,2,0,0,1-.83-.16A2.23,2.23,0,0,1,189.76,94.13Z" style="fill:#ebebeb"></path><path d="M224.06,84.42a0,0,0,0,1,0,0,1.59,1.59,0,0,1-.29.29L212.12,96.53a2.71,2.71,0,0,1-3.72,0,2.63,2.63,0,0,1,0-3.72l9.79-9.88-9.79-9.88a2.63,2.63,0,0,1,0-3.72,2.7,2.7,0,0,1,3.72,0l11.61,11.78a1.59,1.59,0,0,1,.29.29s0,.08,0,.08a2.55,2.55,0,0,1,.21.38s0,0,0,.08a1.5,1.5,0,0,0,.13.37s0,0,0,.12v.29s0,.17,0,.21,0,.17,0,.21v.33s0,0,0,.08a2.85,2.85,0,0,0-.13.37s0,0,0,.13S224.15,84.25,224.06,84.42Z" style="fill:#ebebeb"></path><g style="opacity:0.7000000000000001"><rect x="231.56" y="67.23" width="61.57" height="119.86" transform="translate(389.5 -135.18) rotate(90)" style="fill:#fff"></rect><path d="M322.52,158.2H202.16V96.13H322.52Zm-119.86-.5H322V96.63H202.66Z" style="fill:#dbdbdb"></path><rect x="209.66" y="104.39" width="50.35" height="45.56" transform="translate(469.67 254.33) rotate(180)" style="fill:#984CFF"></rect><path d="M216.16,114.35a5.39,5.39,0,1,0,4.23-4.24A5.39,5.39,0,0,0,216.16,114.35Z" style="opacity:0.1"></path><polygon points="223.83 140.13 260.01 140.13 241.92 115.61 223.83 140.13" style="opacity:0.2"></polygon><polygon points="209.66 140.15 239.53 140.15 224.59 124.18 209.66 140.15" style="fill:#984CFF"></polygon><polygon points="209.66 140.15 239.53 140.15 224.59 124.18 209.66 140.15" style="opacity:0.1"></polygon><rect x="209.66" y="140.13" width="50.35" height="9.82" style="fill:#984CFF"></rect><rect x="209.66" y="140.13" width="50.35" height="9.82" style="opacity:0.1"></rect><rect x="268.44" y="104.39" width="42.89" height="3.12" style="fill:#ebebeb"></rect><rect x="268.44" y="110.85" width="42.89" height="3.12" style="fill:#ebebeb"></rect><rect x="268.44" y="117.31" width="42.89" height="3.12" style="fill:#ebebeb"></rect><rect x="268.44" y="123.77" width="42.89" height="3.12" style="fill:#ebebeb"></rect><rect x="268.44" y="130.23" width="42.89" height="3.12" style="fill:#ebebeb"></rect></g></g></svg>