<svg xmlns="http://www.w3.org/2000/svg" width="628" height="318" style=""><rect id="backgroundrect" width="100%" height="100%" x="0" y="0" fill="none" stroke="none"/><g class="currentLayer" style=""><title>Layer 1</title><g id="freepik--character-2--inject-2" class=""><rect x="337.9100036621094" y="97.84797668457031" width="252.1699981689453" height="219.67999267578125" rx="38.790000915527344" style="fill:#984CFF" id="svg_1"/><g style="opacity:0.4" id="svg_2"><rect x="337.9100036621094" y="97.84797668457031" width="252.1699981689453" height="219.67999267578125" rx="38.790000915527344" id="svg_3"/></g><polygon points="590.0099868774414,174.42799377441406 627.7800064086914,174.42799377441406 589.1600112915039,213.05796813964844 590.0099868774414,174.42799377441406 " style="fill:#984CFF" id="svg_4"/><g style="opacity:0.4" id="svg_5"><polygon points="590.0099868774414,174.42799377441406 627.7800064086914,174.42799377441406 589.1600112915039,213.05796813964844 590.0099868774414,174.42799377441406 " id="svg_6"/></g><path d="M331.8699990844727,198.17798278808596 l-15.83,-18 c-4.28,-4.28 -5.75,-6.34 -4.890000000000001,-7.09 c1.1400000000000001,-1 0.6500000000000001,-0.6700000000000002 9.54,6 c0,0 -12.6,-9.63 -8.23,-9.69 c0.77,0 2.91,1.24 5.2,2.74 c-3.12,-2.6500000000000004 -4,-4.44 -3.39,-5.29 c1,-1.48 8.72,3.87 12.27,6.44 c-2.9,-2.16 -8.43,-6.35 -9.4,-7.67 c-1.34,-1.8 1.37,-1.6500000000000001 3.5700000000000003,-0.9 c2.47,0.8400000000000001 16.12,7.8100000000000005 20.16,9.61 a2.6100000000000003,2.6100000000000003 0 0 0 3.7600000000000002,-1.27 c1.49,-6.26 6,-10.33 7.72,-10.86 s3.05,1.6700000000000002 1.82,3.27 A23.86,23.86 0 0 0 351.50999908447267,171.44798278808594 a15.47,15.47 0 0 0 -0.81,5.13 c0,2 0.14,3.73 0.27,5.18 l14.47,19.85 l-24.2,14 z" style="fill:#b78876" id="svg_7"/><path d="M326.20999908447266,181.88798278808594 c-0.16000000000000003,0.22000000000000003 -3,-1.71 -6.28,-4.32 s-5.84,-4.91 -5.65,-5.12 s3,1.73 6.28,4.32 S326.34999908447264,181.65798278808592 326.20999908447266,181.88798278808594 z" style="fill:#aa6550" id="svg_8"/><path d="M329.26999908447266,178.7279827880859 c-0.16000000000000003,0.23 -3.27,-1.6700000000000002 -6.95,-4.23 s-6.54,-4.83 -6.38,-5.05 s3.27,1.6600000000000001 6.95,4.22 S329.4299990844727,178.49798278808595 329.26999908447266,178.7279827880859 z" style="fill:#aa6550" id="svg_9"/><path d="M331.50999908447267,175.36798278808595 c-0.16000000000000003,0.23 -3.14,-1.51 -6.65,-3.89 s-6.23,-4.49 -6.08,-4.73 s3.13,1.51 6.65,3.89 S331.65999908447264,175.13798278808594 331.50999908447267,175.36798278808595 z" style="fill:#aa6550" id="svg_10"/><path d="M352.31999908447267,184.44798278808594 l57.68,73.14 l-13.21,30.75 s-15.82,-3.5 -20.62,-10.16 s-44.3,-80 -44.3,-80 z" style="fill:#b78876" id="svg_11"/><path d="M498.73999908447263,82.12798278808594 c4.15,3.6 4.14,9.94 3.66,15.41 s-0.8500000000000001,11.7 2.94,15.68 c3.13,3.2800000000000002 8.8,4.71 9.52,9.18 a5.15,5.15 0 0 1 -8.51,4.67 c1.22,3.5300000000000002 0.38000000000000006,7.94 -2.68,10.08 s-8.19,0.8200000000000001 -9.14,-2.79 a4.53,4.53 0 1 1 -8.89,1.62 " style="fill:#263238" id="svg_12"/><path d="M439.3099990844727,119.04798278808593 A5.46,5.46 0 1 1 429.20999908447266,114.83798278808592 c0.9500000000000001,-2.08 3.2,-3.58 3.42,-5.86 c0.26,-2.75 -2.55,-4.72 -5,-5.92 s-5.41,-2.7600000000000002 -5.68,-5.52 s2.12,-4.73 4.11,-6.51 s4,-4.54 2.73,-6.91 c-0.6300000000000001,-1.22 -1.94,-1.9100000000000001 -2.79,-3 c-1.87,-2.38 -0.8900000000000001,-6.17 1.5,-8 s5.69,-2.12 8.67,-1.59 s5.78,1.77 8.68,2.64 a36.21,36.21 0 0 0 28.84,-3.7800000000000002 " style="fill:#263238" id="svg_13"/><path d="M457.0199990844726,183.5379827880859 a20.08,20.08 0 0 0 23.59,-15.4 l14.19,-65.06 a28.87,28.87 0 0 0 -22.27,-34.9 l-1.48,-0.22000000000000003 a29.06,29.06 0 0 0 -32.55,22.25 c-3.16,13.73 -6.47,28.94 -7.47,36.41 c-2.07,15.47 13,20.13 13,20.13 l-2.71,13 a20.08,20.08 0 0 0 15.68,23.76 z" style="fill:#b78876" id="svg_14"/><path d="M441.2799990844727,100.44798278808594 a2.24,2.24 0 0 0 1.8,2.54 a2.13,2.13 0 0 0 2.56,-1.6500000000000001 a2.22,2.22 0 0 0 -1.79,-2.54 A2.14,2.14 0 0 0 441.2799990844727,100.44798278808594 z" style="fill:#263238" id="svg_15"/><path d="M440.70999908447266,98.24798278808595 c0.23,0.33000000000000007 2.08,-0.6700000000000002 4.46,-0.31000000000000005 s3.93,1.79 4.23,1.54 c0.15000000000000002,-0.11000000000000001 -0.06000000000000001,-0.6700000000000002 -0.7300000000000001,-1.33 a6.12,6.12 0 0 0 -3.34,-1.59 a5.890000000000001,5.890000000000001 0 0 0 -3.6,0.6000000000000001 C440.91999908447264,97.61798278808592 440.59999908447264,98.09798278808594 440.70999908447266,98.24798278808595 z" style="fill:#263238" id="svg_16"/><path d="M464.46999908447265,104.24798278808595 a2.23,2.23 0 0 0 1.8,2.54 a2.13,2.13 0 0 0 2.56,-1.6600000000000001 a2.22,2.22 0 0 0 -1.8,-2.5300000000000002 A2.12,2.12 0 0 0 464.46999908447265,104.24798278808595 z" style="fill:#263238" id="svg_17"/><path d="M463.96999908447265,102.10798278808593 c0.23,0.32000000000000006 2.08,-0.6700000000000002 4.45,-0.31000000000000005 s3.94,1.79 4.24,1.54 c0.14,-0.11000000000000001 -0.06000000000000001,-0.6700000000000002 -0.7400000000000001,-1.33 a6.12,6.12 0 0 0 -3.34,-1.59 a5.890000000000001,5.890000000000001 0 0 0 -3.6,0.6000000000000001 C464.20999908447266,101.44798278808594 463.84999908447264,101.95798278808593 463.96999908447265,102.10798278808593 z" style="fill:#263238" id="svg_18"/><path d="M452.7799990844727,118.44798278808594 c0,-0.14 -1.4100000000000001,-0.6100000000000001 -3.75,-1.26 c-0.6000000000000001,-0.15000000000000002 -1.15,-0.36000000000000004 -1.19,-0.79 a3.14,3.14 0 0 1 0.6600000000000001,-1.73 q1.19,-2.07 2.47,-4.35 c3.45,-6.21 6,-11.34 5.79,-11.48 s-3.25,4.78 -6.7,11 l-2.4,4.38 a3.6,3.6 0 0 0 -0.6600000000000001,2.34 a1.54,1.54 0 0 0 0.8700000000000001,1 a4.26,4.26 0 0 0 1,0.29000000000000004 A15.94,15.94 0 0 0 452.7799990844727,118.44798278808594 z" style="fill:#263238" id="svg_19"/><path d="M464.70999908447266,92.71798278808595 c0.14,0.6800000000000002 2.56,0.7200000000000001 5.29,1.46 s4.87,1.83 5.33,1.31 c0.2,-0.25 -0.1,-0.92 -0.91,-1.6700000000000002 a9.52,9.52 0 0 0 -8.09,-2.11 C465.20999908447266,91.96798278808595 464.6599990844727,92.44798278808594 464.70999908447266,92.71798278808595 z" style="fill:#263238" id="svg_20"/><path d="M442.58999908447265,91.50798278808594 c0.3400000000000001,0.6000000000000001 2,0.28 4,0.54 s3.58,0.9 4,0.39000000000000007 c0.21000000000000002,-0.25 0,-0.8300000000000001 -0.6200000000000001,-1.45 a5.87,5.87 0 0 0 -6.5,-0.7400000000000001 C442.7499990844726,90.69798278808594 442.4399990844727,91.21798278808595 442.58999908447265,91.50798278808594 z" style="fill:#263238" id="svg_21"/><path d="M480.5199990844726,83.68798278808595 l0.07,0.08000000000000002 a12.26,12.26 0 0 1 3.36,8.52 v0.31000000000000005 c0,4.5 -0.81,9 -0.8,13.45 s0.8700000000000001,9.19 3.68,12.69 c1.15,1.45 3.39,2.6500000000000004 4.7,1.35 a3.8,3.8 0 0 0 0.8500000000000001,-1.94 c2.38,-10.51 6.66,-19.51 8.27,-30.63 a9.47,9.47 0 0 0 -2.77,-8.2 c-2.08,-2 -4.67,-4.16 -7.44,-3.31 s-6.82,5.2 -9.13,7 " style="fill:#263238" id="svg_22"/><path d="M488.56999908447267,109.29798278808593 c0.28,-0.08000000000000002 11.07,-1.59 9.18,8.92 s-12,6.45 -12,6.14 S488.56999908447267,109.29798278808593 488.56999908447267,109.29798278808593 z" style="fill:#b78876" id="svg_23"/><path d="M489.6699990844727,120.95798278808593 s0.16000000000000003,0.16000000000000003 0.44000000000000006,0.35000000000000003 a1.87,1.87 0 0 0 1.37,0.28 c1.18,-0.21000000000000002 2.43,-1.8 2.8200000000000003,-3.6900000000000004 a6.16,6.16 0 0 0 0,-2.71 a2.16,2.16 0 0 0 -1.13,-1.6500000000000001 a0.9400000000000001,0.9400000000000001 0 0 0 -1.17,0.31000000000000005 c-0.19000000000000003,0.26 -0.16000000000000003,0.49000000000000005 -0.22000000000000003,0.49000000000000005 s-0.19000000000000003,-0.21000000000000002 0,-0.6300000000000001 a1.1600000000000001,1.1600000000000001 0 0 1 0.53,-0.5800000000000001 a1.4100000000000001,1.4100000000000001 0 0 1 1.06,-0.09000000000000002 a2.63,2.63 0 0 1 1.62,2 a6.3100000000000005,6.3100000000000005 0 0 1 0.11000000000000001,3 c-0.45,2.11 -1.8900000000000001,3.89 -3.48,4.06 a2,2 0 0 1 -1.6300000000000001,-0.5800000000000001 C489.6399990844726,121.20798278808593 489.6299990844726,120.96798278808595 489.6699990844727,120.95798278808593 z" style="fill:#aa6550" id="svg_24"/><path d="M490.5599990844727,77.69798278808594 c3.22,-3.85 -3,-10.95 -8,-13.36 s-12.2,-0.8700000000000001 -17.64,0.09000000000000002 c-3.43,0.6100000000000001 -6.91,1.6500000000000001 -10.33,1 a23.28,23.28 0 0 1 -6.44,-2.6900000000000004 A17.43,17.43 0 0 0 441.60999908447263,60.44798278808594 a6.44,6.44 0 0 0 -6.07,2.71 c-1.19,2 -0.36000000000000004,5.13 1.8800000000000001,5.78 a5.24,5.24 0 1 0 -2.79,9.4 c-1.33,-1.36 -3.91,0.19000000000000003 -4,2.09 s1.4100000000000001,3.51 3,4.52 c4.11,2.58 9.33,2.71 14.11,1.85 s9.36,-2.64 14.12,-3.62 s12.75,-2.84 17.05,-0.5700000000000001 c3.16,1.6600000000000001 4.9,6 6.91,5.41 a6.53,6.53 0 0 0 4,-4.26 a19,19 0 0 0 0.6700000000000002,-6 " style="fill:#263238" id="svg_25"/><path d="M511.1299990844726,126.44798278808594 a1.62,1.62 0 0 0 0.55,-0.24000000000000002 a3.13,3.13 0 0 0 1.1400000000000001,-1.3 a4.59,4.59 0 0 0 0.3400000000000001,-2.72 a5.46,5.46 0 0 0 -1.8800000000000001,-3.08 a13.7,13.7 0 0 0 -3.79,-2.21 a24.61,24.61 0 0 1 -4.43,-2.14 a8.84,8.84 0 0 1 -3.21,-4.17 a14.620000000000001,14.620000000000001 0 0 1 -0.93,-5.68 c0.1,-4 1.21,-7.75 1.48,-11.28 s-0.18000000000000002,-6.84 -1.6800000000000002,-9.13 a8.47,8.47 0 0 0 -5,-3.75 a5.84,5.84 0 0 0 -1.71,-0.17 a2.21,2.21 0 0 0 -0.5900000000000001,0.09000000000000002 a8.72,8.72 0 0 1 2.25,0.28 a8.44,8.44 0 0 1 4.72,3.75 c1.3900000000000001,2.22 1.87,5.44 1.52,8.89 s-1.42,7.2 -1.54,11.31 a15,15 0 0 0 1,5.88 a9.32,9.32 0 0 0 3.43,4.39 a25.25,25.25 0 0 0 4.53,2.14 a13.7,13.7 0 0 1 3.71,2.08 a5.25,5.25 0 0 1 1.84,2.8600000000000003 a4.34,4.34 0 0 1 -0.24000000000000002,2.5700000000000003 A3.44,3.44 0 0 1 511.1299990844726,126.44798278808594 z" style="fill:#455a64" id="svg_26"/><path d="M437.07999908447266,68.68798278808595 a1.81,1.81 0 0 0 -0.46,-0.25 a3.88,3.88 0 0 0 -0.5800000000000001,-0.23 a5,5 0 0 0 -0.8500000000000001,-0.21000000000000002 a6.33,6.33 0 0 0 -5.3,1.62 h0 a8.48,8.48 0 0 0 -1.8800000000000001,6.26 a10.42,10.42 0 0 0 3.8600000000000003,7.13 a16.13,16.13 0 0 0 8.74,3.51 a35.64,35.64 0 0 0 10.38,-0.6300000000000001 a46.92,46.92 0 0 0 15.3,-5.92 a46.57,46.57 0 0 1 6.32,-3.27 a16.8,16.8 0 0 1 6,-1.23 a17.91,17.91 0 0 1 8.620000000000001,2 a30,30 0 0 1 2.79,1.77 a12.26,12.26 0 0 0 -2.6900000000000004,-2 a17.64,17.64 0 0 0 -8.73,-2.23 a17.22,17.22 0 0 0 -6.16,1.19 a47.17,47.17 0 0 0 -6.39,3.27 a47.22,47.22 0 0 1 -15.16,5.8100000000000005 a35.41,35.41 0 0 1 -10.23,0.6500000000000001 a15.75,15.75 0 0 1 -8.49,-3.36 a10.05,10.05 0 0 1 -3.7600000000000002,-6.8100000000000005 a8.14,8.14 0 0 1 1.7200000000000002,-6 h0 a6.21,6.21 0 0 1 5.06,-1.6700000000000002 A10.81,10.81 0 0 1 437.07999908447266,68.68798278808595 z" style="fill:#455a64" id="svg_27"/><path d="M442.9299990844727,59.93798278808595 a6,6 0 0 0 0.37000000000000005,2.36 a9.92,9.92 0 0 0 4.14,5 a12.41,12.41 0 0 0 4.19,1.7400000000000002 a17.78,17.78 0 0 0 5.2,0.27 c3.67,-0.27 7.51,-1.53 11.54,-2.5700000000000003 s8.06,-1.59 11.54,-0.6600000000000001 a15,15 0 0 1 7.84,5.09 a15.59,15.59 0 0 1 3,5.640000000000001 c0.4,1.47 0.45,2.33 0.52,2.3200000000000003 a4.77,4.77 0 0 0 0,-0.6200000000000001 a12.43,12.43 0 0 0 -0.29000000000000004,-1.75 a15.08,15.08 0 0 0 -2.91,-5.83 a15.29,15.29 0 0 0 -8,-5.33 c-3.6,-1 -7.74,-0.43000000000000005 -11.79,0.6200000000000001 s-7.86,2.31 -11.45,2.6 a17.62,17.62 0 0 1 -5.07,-0.21000000000000002 a12.45,12.45 0 0 1 -4.08,-1.62 a10,10 0 0 1 -4.14,-4.74 A14.24,14.24 0 0 1 442.9299990844727,59.93798278808595 z" style="fill:#455a64" id="svg_28"/><path d="M448.0399990844727,126.29798278808593 a11.38,11.38 0 0 0 0.81,3 a3.67,3.67 0 0 0 2.25,2 a3.2800000000000002,3.2800000000000002 0 0 0 3,-0.91 a5.3100000000000005,5.3100000000000005 0 0 0 1.4100000000000001,-2.94 c0.16000000000000003,-1 0,-2.25 -1,-2.5700000000000003 a2.56,2.56 0 0 0 -1.23,0 l-5.54,1 " style="fill:#aa6550" id="svg_29"/><path d="M449.0099990844726,130.49798278808595 a7.8,7.8 0 0 0 2.7600000000000002,0.52 a3.92,3.92 0 0 0 2.58,-1.18 a4.16,4.16 0 0 0 1.11,-3.23 a3.64,3.64 0 0 0 -0.2,-0.8800000000000001 c-0.13,-0.27 -0.09000000000000002,-0.25 -0.32000000000000006,-0.28 s-0.5900000000000001,0 -0.8900000000000001,0.05000000000000001 l-0.93,0.07 c-1.2,0.09000000000000002 -2.2800000000000002,0.16000000000000003 -3.19,0.21000000000000002 a9.52,9.52 0 0 1 -3,-0.06000000000000001 a10.17,10.17 0 0 1 2.91,-0.6000000000000001 c0.9,-0.13 2,-0.26 3.17,-0.4 l0.92,-0.1 a9,9 0 0 1 1,-0.09000000000000002 a1.25,1.25 0 0 1 0.7300000000000001,0.26 a1.46,1.46 0 0 1 0.41000000000000003,0.6100000000000001 a4.34,4.34 0 0 1 0.26,1.12 a4.91,4.91 0 0 1 -1.4300000000000002,3.93 a4.47,4.47 0 0 1 -3.17,1.23 a4.14,4.14 0 0 1 -2.18,-0.6100000000000001 C449.20999908447266,130.78798278808594 448.97999908447264,130.53798278808594 449.0099990844726,130.49798278808595 z" style="fill:#263238" id="svg_30"/><path d="M444.0499990844727,146.74798278808595 s10.08,3.8200000000000003 19.89,1 c0,0 -7.4,6.21 -20.9,3.83 z" style="fill:#aa6550" id="svg_31"/><path d="M459.4299990844727,290.11798278808595 a11.59,11.59 0 0 1 -1.3800000000000001,-1.06 c-0.43000000000000005,-0.35000000000000003 -1,-0.78 -1.61,-1.24 s-1.35,-1 -2.2,-1.55 s-1.73,-1.15 -2.7600000000000002,-1.7200000000000002 s-2.12,-1.17 -3.29,-1.77 a51.32,51.32 0 0 0 -16.32,-4.88 c-1.31,-0.14 -2.55,-0.30000000000000004 -3.72,-0.33000000000000007 s-2.26,-0.08000000000000002 -3.25,-0.07 s-1.9,0.06000000000000001 -2.6900000000000004,0.09000000000000002 s-1.47,0.09000000000000002 -2,0.15000000000000002 a10.53,10.53 0 0 1 -1.73,0.12000000000000001 a13.16,13.16 0 0 1 1.71,-0.32000000000000006 a20,20 0 0 1 2,-0.24000000000000002 c0.79,-0.06000000000000001 1.6900000000000002,-0.17 2.7,-0.17 s2.1,-0.06000000000000001 3.2800000000000002,0 s2.44,0.16000000000000003 3.7600000000000002,0.28 a54.7,54.7 0 0 1 8.46,1.7400000000000002 a53,53 0 0 1 8,3.19 c1.17,0.6200000000000001 2.3,1.19 3.29,1.83 s1.9300000000000002,1.21 2.75,1.79 s1.54,1.1400000000000001 2.17,1.62 s1.15,0.9400000000000001 1.56,1.32 A10.54,10.54 0 0 1 459.4299990844727,290.11798278808595 z" style="fill:#fafafa" id="svg_32"/><path d="M400.65999908447264,238.75798278808594 l8.2,-35.53 c3.14,-13.36 6.86,-26.2 13.11,-27.72 v4.13 L419.28999908447264,281.1479827880859 s-16.71,19 -38,8.46 c-6.66,-3.31 -18.81,-26.56 -18.81,-26.56 S334.20999908447266,212.60798278808596 335.38999908447266,210.31798278808594 s18.45,-24.55 20.21,-25.66 z" style="fill:#984CFF" id="svg_33"/><path d="M485.0399990844727,165.44798278808594 c16.3,3.12 34.65,12.63 43.1,37 c3.08,8.9 25.52,74.51 25.52,74.51 l-38.27,-0.8 L509.20999908447266,262.6479827880859 l3,21.95 l2.59,31.3 l-96.64,1.6300000000000001 l0.6800000000000002,-47.16 l0.93,-93.8 s1.08,-1.42 17.75,-10.61 C447.85999908447263,160.24798278808595 485.0399990844727,165.44798278808594 485.0399990844727,165.44798278808594 z" style="fill:#984CFF" id="svg_34"/><g style="opacity:0.2" id="svg_35"><path d="M494.6799990844727,228.18798278808595 c1.59,19.8 3.41,25.92 5,45.72 a17.58,17.58 0 0 0 1,5.5 a6,6 0 0 0 4,3.6500000000000004 c2.8200000000000003,0.5700000000000001 6.48,2.6100000000000003 7.27,-0.15000000000000002 l-2.67,-19.07 a37.61,37.61 0 0 0 -2.64,-8.05 c-5.93,-13.17 -8.12,-13.94 -12,-27.6 " id="svg_36"/></g><path d="M437.50999908447267,176.10798278808596 l0.32000000000000006,-2.06 l3.09,-19.76 a2.3,2.3 0 0 1 2.46,-1.94 l38.05,3.18 a4.37,4.37 0 0 1 4,4.68 l-0.8500000000000001,11.48 l-11.88,15.5 l-17.11,2.67 " style="fill:#984CFF" id="svg_37"/><path d="M418.39999908447265,213.25798278808594 c0.15000000000000002,0 0.26,15.48 0.26,34.57 s-0.11000000000000001,34.57 -0.26,34.57 s-0.26,-15.48 -0.26,-34.57 S418.25999908447267,213.25798278808594 418.39999908447265,213.25798278808594 z" style="fill:#263238" id="svg_38"/><path d="M516.2099990844727,279.3379827880859 s0,-0.07 -0.12000000000000001,-0.22000000000000003 s-0.19000000000000003,-0.4 -0.32000000000000006,-0.6800000000000002 l-1.1600000000000001,-2.63 l-4.17,-9.71 l-13.59,-32.11 c-2.64,-6.28 -5.15,-12.26 -7.43,-17.71 a33.36,33.36 0 0 1 -2.46,-8 a44.13,44.13 0 0 1 -0.6600000000000001,-7.3 a29.44,29.44 0 0 1 1.52,-10.45 l0.31000000000000005,-0.8300000000000001 l0.35000000000000003,-0.7000000000000001 a6.14,6.14 0 0 1 0.6000000000000001,-1.06 l0.42000000000000004,-0.6200000000000001 a1.75,1.75 0 0 1 0.16000000000000003,-0.2 a20.55,20.55 0 0 0 -1.6500000000000001,3.48 a30.24,30.24 0 0 0 -1.34,10.38 a38.16,38.16 0 0 0 3.19,15.15 l7.47,17.69 l13.45,32.17 l4,9.77 l1.07,2.67 l0.27,0.7000000000000001 A1.21,1.21 0 0 1 516.2099990844727,279.3379827880859 z" style="fill:#263238" id="svg_39"/><path d="M496.8999990844727,168.93798278808595 a12.53,12.53 0 0 1 -1.11,1 a17.19,17.19 0 0 1 -3.6500000000000004,2.13 a27.4,27.4 0 0 1 -6.42,1.8 a79.61,79.61 0 0 1 -8.8,0.8700000000000001 c-3.2800000000000002,0.14 -6.86,0.08000000000000002 -10.7,0.15000000000000002 a49.52,49.52 0 0 0 -12.1,1.48 a22.3,22.3 0 0 0 -11.38,6.71 a15.71,15.71 0 0 0 -3.16,6.24 a13.36,13.36 0 0 0 0.12000000000000001,7.15 a11.35,11.35 0 0 0 1.6700000000000002,3.2 a8.43,8.43 0 0 0 2.7,2.2800000000000002 a5.88,5.88 0 0 0 3.34,0.7000000000000001 a4.57,4.57 0 0 0 2.94,-1.5 a8,8 0 0 0 1.48,-6.33 a10.39,10.39 0 0 0 -1,-3.12 a15.25,15.25 0 0 0 -1.77,-2.6900000000000004 a18.84,18.84 0 0 0 -10.26,-6.07 a21.79,21.79 0 0 0 -10.49,0.12000000000000001 a28.76,28.76 0 0 0 -8,3.43 a38.24,38.24 0 0 0 -5.32,4 c-1.37,1.2 -2.34,2.24 -3,2.92 l-0.7400000000000001,0.8 a1.84,1.84 0 0 1 -0.27,0.26 a32.57,32.57 0 0 1 3.9,-4.13 a36,36 0 0 1 5.3,-4.06 a28.71,28.71 0 0 1 8.1,-3.54 a22,22 0 0 1 10.68,-0.18000000000000002 a19.21,19.21 0 0 1 10.53,6.19 A15.68,15.68 0 0 1 451.3099990844727,191.44798278808594 a10.82,10.82 0 0 1 1,3.27 a10.5,10.5 0 0 1 -0.06000000000000001,3.49 a6.93,6.93 0 0 1 -1.53,3.25 a5.07,5.07 0 0 1 -3.26,1.6700000000000002 a6.33,6.33 0 0 1 -3.64,-0.7500000000000001 a9,9 0 0 1 -2.87,-2.42 a11.85,11.85 0 0 1 -1.7600000000000002,-3.36 a13.8,13.8 0 0 1 -0.12000000000000001,-7.43 a16,16 0 0 1 3.27,-6.45 a22.88,22.88 0 0 1 11.64,-6.85 A49.71,49.71 0 0 1 466.20999908447266,174.44798278808594 c3.85,-0.06000000000000001 7.43,0 10.69,-0.09000000000000002 a80.12,80.12 0 0 0 8.77,-0.79 a28.36,28.36 0 0 0 6.4,-1.7000000000000002 a18.27,18.27 0 0 0 3.66,-2 c0.4,-0.27 0.6700000000000002,-0.52 0.8700000000000001,-0.6600000000000001 A2.08,2.08 0 0 1 496.8999990844727,168.93798278808595 z" style="fill:#fafafa" id="svg_40"/><path d="M529.9699990844726,210.55798278808595 a1.9300000000000002,1.9300000000000002 0 0 1 -0.43000000000000005,0.07 c-0.28,0 -0.6900000000000002,0.07 -1.23,0.09000000000000002 a39.61,39.61 0 0 1 -4.53,-0.11000000000000001 c-1.9100000000000001,-0.14 -4.17,-0.43000000000000005 -6.67,-0.78 s-5.24,-0.7200000000000001 -8.14,-0.8700000000000001 a31.38,31.38 0 0 0 -8.09,0.6100000000000001 a20.4,20.4 0 0 0 -6.18,2.35 a17.79,17.79 0 0 0 -4.5600000000000005,4 a1.42,1.42 0 0 1 0.22000000000000003,-0.37000000000000005 a7.2,7.2 0 0 1 0.7200000000000001,-1 a13.78,13.78 0 0 1 3.43,-3 a20.1,20.1 0 0 1 6.26,-2.5 a30.69,30.69 0 0 1 8.23,-0.6600000000000001 c2.93,0.15000000000000002 5.68,0.55 8.18,0.92 s4.74,0.7000000000000001 6.63,0.8800000000000001 s3.44,0.26 4.5,0.27 A13.52,13.52 0 0 1 529.9699990844726,210.55798278808595 z" style="fill:#fafafa" id="svg_41"/><path d="M505.9399990844727,255.38798278808594 a20.15,20.15 0 0 0 -5.74,-0.49000000000000005 a31.14,31.14 0 0 0 -6.67,1.19 c-2.55,0.6900000000000002 -5.4,1.7000000000000002 -8.6,2.6900000000000004 a35.4,35.4 0 0 1 -10.78,1.87 a30.88,30.88 0 0 1 -12.28,-2.55 a30.55,30.55 0 0 1 -11.2,-8.14 a23.29,23.29 0 0 1 -4,-6.22 a14.22,14.22 0 0 1 -1.15,-7.51 a10.93,10.93 0 0 1 3.55,-6.69 a7.79,7.79 0 0 1 3.37,-1.7200000000000002 a7.890000000000001,7.890000000000001 0 0 1 6.93,1.87 a6,6 0 0 1 1.8,3.11 a6.07,6.07 0 0 1 -0.27,3.51 a8.44,8.44 0 0 1 -1.87,2.87 a14.91,14.91 0 0 1 -5.49,3.49 a16.76,16.76 0 0 1 -3,0.8300000000000001 c-0.5,0.09000000000000002 -1,0.2 -1.49,0.27 l-1.49,0.18000000000000002 a32.47,32.47 0 0 1 -10.91,-0.77 a34,34 0 0 1 -8.43,-3.24 a31.12,31.12 0 0 1 -5.61,-3.88 l-1,-0.8700000000000001 l-0.8200000000000001,-0.8300000000000001 a13.89,13.89 0 0 1 -1.24,-1.34 l-0.7200000000000001,-0.8600000000000001 a2.08,2.08 0 0 1 -0.22000000000000003,-0.30000000000000004 a2.48,2.48 0 0 1 0.27,0.27 l0.7500000000000001,0.8200000000000001 a14.89,14.89 0 0 0 1.27,1.3 l0.8300000000000001,0.81 l1,0.8500000000000001 a31.58,31.58 0 0 0 5.61,3.77 a34,34 0 0 0 8.37,3.14 a32.13,32.13 0 0 0 10.79,0.7000000000000001 l1.46,-0.18000000000000002 c0.49000000000000005,-0.08000000000000002 1,-0.19000000000000003 1.48,-0.28 a16.19,16.19 0 0 0 2.93,-0.8200000000000001 a14.51,14.51 0 0 0 5.3100000000000005,-3.39 a8,8 0 0 0 1.7600000000000002,-2.71 a5.73,5.73 0 0 0 0.25,-3.23 a6.26,6.26 0 0 0 -4.67,-4.48 a7,7 0 0 0 -6.61,1.51 a10.33,10.33 0 0 0 -3.37,6.37 a13.870000000000001,13.870000000000001 0 0 0 1.1,7.23 a23.22,23.22 0 0 0 3.88,6.09 a30.14,30.14 0 0 0 11,8 a30.67,30.67 0 0 0 12.09,2.56 a35.16,35.16 0 0 0 10.68,-1.8 c3.19,-1 6,-1.94 8.63,-2.6100000000000003 a30.92,30.92 0 0 1 6.73,-1.11 a19.94,19.94 0 0 1 2.49,0 c0.7100000000000001,0.11000000000000001 1.32,0.16000000000000003 1.8,0.27 l1.09,0.27 A1.62,1.62 0 0 1 505.9399990844727,255.38798278808594 z" style="fill:#fafafa" id="svg_42"/><path d="M418.06999908447267,244.71798278808592 c-0.09000000000000002,0 -0.55,-1 -1.52,-2.68 a26.1,26.1 0 0 0 -10.67,-9.95 c-1.7000000000000002,-0.8600000000000001 -2.8200000000000003,-1.24 -2.79,-1.33 a3,3 0 0 1 0.8200000000000001,0.19000000000000003 a16.28,16.28 0 0 1 2.13,0.8 a23.37,23.37 0 0 1 6.24,4.17 a23,23 0 0 1 4.59,5.94 a17.43,17.43 0 0 1 1,2.06 A3.11,3.11 0 0 1 418.06999908447267,244.71798278808592 z" style="fill:#fafafa" id="svg_43"/><path d="M379.26999908447266,287.51798278808593 s-0.07,-0.08000000000000002 -0.16000000000000003,-0.25 s-0.24000000000000002,-0.44000000000000006 -0.41000000000000003,-0.7500000000000001 c-0.36000000000000004,-0.6600000000000001 -0.8800000000000001,-1.6500000000000001 -1.52,-2.93 a68.54,68.54 0 0 1 -4.58,-11.27 a36.42,36.42 0 0 1 -1.4300000000000002,-8.29 a25.86,25.86 0 0 1 0.19000000000000003,-4.7 a28.06,28.06 0 0 1 1.18,-4.85 a21.14,21.14 0 0 1 5.87,-8.88 a14.37,14.37 0 0 1 10.67,-3.75 a7.92,7.92 0 0 1 5.26,2.56 a6.46,6.46 0 0 1 1.49,5.47 a4.86,4.86 0 0 1 -1.42,2.47 a5.79,5.79 0 0 1 -2.44,1.33 a7.2,7.2 0 0 1 -5.23,-0.6300000000000001 a11.94,11.94 0 0 1 -3.81,-3.25 a17.52,17.52 0 0 1 -2.41,-4.07 A18,18 0 0 1 379.20999908447266,237.44798278808594 a17,17 0 0 1 2,-6.65 a17.36,17.36 0 0 1 3.14,-4.2 a16.32,16.32 0 0 1 2.5700000000000003,-2.09 c0.31000000000000005,-0.21000000000000002 0.5700000000000001,-0.3400000000000001 0.7400000000000001,-0.44000000000000006 l0.26,-0.13 s-0.32000000000000006,0.23 -0.9400000000000001,0.6600000000000001 a18.18,18.18 0 0 0 -2.49,2.14 a17.79,17.79 0 0 0 -3,4.19 a16.8,16.8 0 0 0 -1.87,6.54 a17.56,17.56 0 0 0 1.36,8.1 a17.28,17.28 0 0 0 2.36,3.95 a11.57,11.57 0 0 0 3.68,3.11 a6.7,6.7 0 0 0 4.88,0.5800000000000001 a4.7,4.7 0 0 0 3.49,-3.44 a6,6 0 0 0 -1.3800000000000001,-5 a7.4,7.4 0 0 0 -4.92,-2.38 a13.870000000000001,13.870000000000001 0 0 0 -10.28,3.6100000000000003 a20.83,20.83 0 0 0 -5.75,8.66 a27.07,27.07 0 0 0 -1.19,4.75 a25.91,25.91 0 0 0 -0.21000000000000002,4.62 a36.65,36.65 0 0 0 1.36,8.21 a73.11,73.11 0 0 0 4.4,11.28 l1.4300000000000002,3 c0.15000000000000002,0.32000000000000006 0.27,0.5800000000000001 0.37000000000000005,0.78 S379.26999908447266,287.51798278808593 379.26999908447266,287.51798278808593 z" style="fill:#fafafa" id="svg_44"/><path d="M366.91999908447264,199.23798278808596 s0.05000000000000001,0.14 0.09000000000000002,0.41000000000000003 a12.18,12.18 0 0 1 0.15000000000000002,1.22 a25.56,25.56 0 0 1 0,4.49 a28.54,28.54 0 0 1 -16.12,23.43 a25.71,25.71 0 0 1 -4.19,1.61 c-0.5,0.16000000000000003 -0.91,0.23 -1.18,0.30000000000000004 s-0.42000000000000004,0.08000000000000002 -0.42000000000000004,0.06000000000000001 a12.79,12.79 0 0 1 1.54,-0.55 a31.56,31.56 0 0 0 4.09,-1.75 a29.27,29.27 0 0 0 15.92,-23.14 a32.55,32.55 0 0 0 0.17,-4.44 A12.7,12.7 0 0 1 366.91999908447264,199.23798278808596 z" style="fill:#fafafa" id="svg_45"/><path d="M538.7199990844726,242.59798278808591 a14.620000000000001,14.620000000000001 0 0 0 -3.8600000000000003,3.52 c-1,1.29 -2,3 -3.13,4.8 a37,37 0 0 1 -4.27,5.65 A36,36 0 0 1 517.2099990844727,264.2779827880859 a30.06,30.06 0 0 1 -3.58,1.53 a7.84,7.84 0 0 1 -1.3800000000000001,0.4 a7.66,7.66 0 0 1 1.3,-0.5900000000000001 c0.8400000000000001,-0.37000000000000005 2.06,-0.8900000000000001 3.49,-1.6700000000000002 a38.5,38.5 0 0 0 10,-7.73 a38,38 0 0 0 4.25,-5.55 a52.18,52.18 0 0 1 3.25,-4.78 a12.63,12.63 0 0 1 2.87,-2.6500000000000004 a6.25,6.25 0 0 1 0.93,-0.51 C538.5999990844726,242.62798278808594 538.7199990844726,242.57798278808593 538.7199990844726,242.59798278808591 z" style="fill:#fafafa" id="svg_46"/><path d="M484.6799990844727,166.64798278808593 a1.59,1.59 0 0 1 -0.46,0.12000000000000001 l-1.33,0.24000000000000002 c-1.1600000000000001,0.19000000000000003 -2.84,0.44000000000000006 -4.91,0.7200000000000001 c-4.16,0.56 -9.92,1.22 -16.31,1.6900000000000002 a81.06,81.06 0 0 1 -9,0.32000000000000006 a25.52,25.52 0 0 1 -7.29,-1.25 a16.19,16.19 0 0 1 -4.45,-2.25 a10.94,10.94 0 0 1 -1.06,-0.8500000000000001 c-0.22000000000000003,-0.22000000000000003 -0.33000000000000007,-0.33000000000000007 -0.32000000000000006,-0.35000000000000003 s0.52,0.4 1.49,1 a17.85,17.85 0 0 0 4.45,2.06 a25.91,25.91 0 0 0 7.2,1.12 a89,89 0 0 0 9,-0.36000000000000004 c6.37,-0.47000000000000003 12.13,-1.06 16.29,-1.53 l4.93,-0.56 A12.65,12.65 0 0 1 484.6799990844727,166.64798278808593 z" style="fill:#263238" id="svg_47"/><path d="M553.2099990844727,284.0379827880859 a26.87,26.87 0 0 1 -26.11,32 l-75.75,-0.8400000000000001 l2,-24.53 L518.2099990844727,280.92798278808596 " style="fill:#b78876" id="svg_48"/><path d="M457.98999908447263,291.73798278808596 c-0.35000000000000003,0.11000000000000001 -4.72,-1.85 -8.64,-3.66 a28.24,28.24 0 0 0 -13.3,-2.58 l-18.06,0.92 s1.11,3 3,4 S434.20999908447266,291.73798278808596 434.20999908447266,291.73798278808596 l-0.5800000000000001,0.5900000000000001 a13,13 0 0 1 -9,3.94 l-1.73,0 a16.78,16.78 0 0 1 -3.77,-0.7400000000000001 l-4.45,-1.8 c-1.35,-0.6000000000000001 -2.77,-0.51 -3.36,0.8500000000000001 s-0.14,2.92 3.54,4.77 c2.05,1 9.67,3.67 9.67,3.67 a17.94,17.94 0 0 0 0.45,3.22 c0.33000000000000007,1.11 3.3200000000000003,2.22 3.3200000000000003,2.22 a39.84,39.84 0 0 0 2.66,4.76 c0.35000000000000003,0.4 3.06,1.25 5.95,2.06 a25.69,25.69 0 0 0 14.23,-0.11000000000000001 l6.88,-2.06 v-21 " style="fill:#b78876" id="svg_49"/><path d="M433.28999908447264,305.44798278808594 a20.47,20.47 0 0 1 -9.11,-2.4 c0,-0.12000000000000001 2,0.6400000000000001 4.53,1.29 S433.29999908447263,305.29798278808596 433.28999908447264,305.44798278808594 z" style="fill:#aa6550" id="svg_50"/><path d="M432.64999908447265,309.6579827880859 a4.62,4.62 0 0 1 -2.54,-0.19000000000000003 a4.69,4.69 0 0 1 -2.2800000000000002,-1.12 a15.08,15.08 0 0 1 2.4,0.6900000000000002 A16.26,16.26 0 0 1 432.64999908447265,309.6579827880859 z" style="fill:#aa6550" id="svg_51"/><path d="M435.94999908447267,290.10798278808596 a7.68,7.68 0 0 1 -1.3900000000000001,1.49 a22.26,22.26 0 0 1 -3.94,3 a15.52,15.52 0 0 1 -4.61,1.78 a6.65,6.65 0 0 1 -2,0.22000000000000003 a26.33,26.33 0 0 0 6.42,-2.39 a30.7,30.7 0 0 0 3.95,-2.83 A11.38,11.38 0 0 1 435.94999908447267,290.10798278808596 z" style="fill:#aa6550" id="svg_52"/><path d="M459.82999908447266,288.44798278808594 l-1.84,27.74 l71.35,0 a26.65,26.65 0 0 0 13.75,-3.81 h0 a26.68,26.68 0 0 0 12.44,-28 a82.08,82.08 0 0 0 -4.6,-15.39 l-35.88,5.91 l1.15,4.46 z" style="fill:#984CFF" id="svg_53"/><path d="M532.7299990844726,277.0279827880859 a5.82,5.82 0 0 1 -0.7200000000000001,0.16000000000000003 l-2.09,0.38000000000000006 L522.2099990844727,278.8479827880859 l-25.36,4 l-25.39,3.89 l-7.7,1.12 l-2.1,0.28 a6.5,6.5 0 0 1 -0.7400000000000001,0.06000000000000001 a3.54,3.54 0 0 1 0.7300000000000001,-0.17 l2.08,-0.37000000000000005 l7.68,-1.29 l25.36,-4 L522.2099990844727,278.44798278808594 l7.7,-1.12 l2.1,-0.28 A3.4,3.4 0 0 1 532.7299990844726,277.0279827880859 z" style="fill:#263238" id="svg_54"/><path d="M496.20999908447266,316.2079827880859 c-0.13,0 0.43000000000000005,-2 0.5,-5.27 a22.76,22.76 0 0 0 -0.11000000000000001,-2.66 a25,25 0 0 0 -0.44000000000000006,-3 a27.93,27.93 0 0 0 -2.3200000000000003,-6.58 a30.1,30.1 0 0 0 -3.9,-5.8 l-1,-1.17 c-0.3400000000000001,-0.38000000000000006 -0.7100000000000001,-0.7100000000000001 -1.05,-1.05 c-0.6700000000000002,-0.6900000000000002 -1.3800000000000001,-1.24 -2,-1.77 c-2.55,-2 -4.36,-3 -4.3,-3.09 a7.73,7.73 0 0 1 1.27,0.6500000000000001 a13.44,13.44 0 0 1 1.44,0.8700000000000001 c0.53,0.38000000000000006 1.19,0.7500000000000001 1.82,1.29 a23,23 0 0 1 2.06,1.7400000000000002 c0.35000000000000003,0.3400000000000001 0.7400000000000001,0.6600000000000001 1.09,1 l1.09,1.18 a29.33,29.33 0 0 1 4,5.87 a27.7,27.7 0 0 1 2.3200000000000003,6.72 a22.39,22.39 0 0 1 0.4,3.09 a19,19 0 0 1 0,2.7 a17.58,17.58 0 0 1 -0.2,2.23 a11.09,11.09 0 0 1 -0.29000000000000004,1.6500000000000001 A8.43,8.43 0 0 1 496.20999908447266,316.2079827880859 z" style="fill:#fafafa" id="svg_55"/><path d="M539.6499990844727,314.11798278808595 a15,15 0 0 1 -3.31,-0.39000000000000007 a17.13,17.13 0 0 1 -3.7,-1.31 a14.69,14.69 0 0 1 -4.17,-3.1 a13.28,13.28 0 0 1 -3.07,-5.5 a14.79,14.79 0 0 1 -0.53,-3.5 a13.6,13.6 0 0 1 0.30000000000000004,-3.73 a11,11 0 0 1 1.48,-3.67 a8.3,8.3 0 0 1 3,-2.8600000000000003 a7.44,7.44 0 0 1 4.19,-1 a5.59,5.59 0 0 1 3.91,2 a5.48,5.48 0 0 1 1.32,4.21 a5,5 0 0 1 -2.46,3.52 a11.72,11.72 0 0 1 -7.88,1.08 a16.45,16.45 0 0 1 -13.91,-15.76 a11.82,11.82 0 0 1 0.28,-3.3200000000000003 a27.82,27.82 0 0 0 -0.08000000000000002,3.31 a17,17 0 0 0 2.85,8.42 A16.32,16.32 0 0 0 528.7899990844727,299.44798278808594 a11.29,11.29 0 0 0 7.54,-1 a4.5,4.5 0 0 0 2.22,-3.15 a5.22,5.22 0 0 0 -4.77,-5.65 a6.91,6.91 0 0 0 -3.89,0.8900000000000001 a9,9 0 0 0 -4.25,6.18 a13.12,13.12 0 0 0 -0.31000000000000005,3.62 a14.37,14.37 0 0 0 0.49000000000000005,3.39 a12.85,12.85 0 0 0 2.92,5.37 a14.59,14.59 0 0 0 4,3.09 a17.57,17.57 0 0 0 3.62,1.37 C538.4599990844727,314.0279827880859 539.6599990844727,314.04798278808596 539.6499990844727,314.11798278808595 z" style="fill:#fafafa" id="svg_56"/></g><g id="freepik--character-1--inject-2" class=""><path d="M256.6199990844727,11.917982788085936 H77.92999908447266 a39.38,39.38 0 0 0 -39.38,39.38 v63.68 H-9.155273374972239e-7 l38.55,38.55 v43.29 a39.38,39.38 0 0 0 39.38,39.38 H256.6199990844727 a39.38,39.38 0 0 0 39.38,-39.38 V51.29798278808593 A39.38,39.38 0 0 0 256.6199990844727,11.917982788085936 z" style="fill:#984CFF" id="svg_57"/><path d="M183.61999908447265,18.64798278808594 c-1.13,2.93 0.81,6.12 3,8.38 s4.8100000000000005,4.4 5.5,7.46 c0.5700000000000001,2.5700000000000003 -0.38000000000000006,5.24 -0.15000000000000002,7.86 s1.6800000000000002,5.09 2.5,7.65 c1.49,4.640000000000001 0.8900000000000001,9.71 -0.44000000000000006,14.4 a26.47,26.47 0 0 1 -5.36,10.61 a14.14,14.14 0 0 1 -10.48,5 a4.14,4.14 0 0 1 -3.1,-1.12 a5,5 0 0 1 -0.8900000000000001,-2.75 a268.13,268.13 0 0 1 0,-60.6 " style="fill:#263238" id="svg_58"/><path d="M181.50999908447267,83.53798278808594 c8.7,-0.38000000000000006 16.74,7.95 16.05,16.63 c8.81,2.15 15,11.84 13.31,20.74 c-0.5700000000000001,2.94 -1.8800000000000001,5.74 -2.06,8.72 c-0.2,3.26 1,6.43 1.59,9.63 a30.34,30.34 0 0 1 -1.7400000000000002,17.36 c-1.37,3.31 -3.93,6.73 -7.51,6.83 a7.4,7.4 0 0 1 -6,-3.5300000000000002 a18.61,18.61 0 0 1 -2.42,-6.83 c-1.55,-7.82 -2,-15.85 -4.16,-23.52 S182.20999908447266,114.33798278808592 175.27999908447265,110.44798278808594 c-3.83,-2.16 -8.43,-3.18 -11.48,-6.35 a12.47,12.47 0 0 1 -2.25,-12.9 a16.44,16.44 0 0 1 9.8,-9.15 " style="fill:#263238" id="svg_59"/><path d="M121.28999908447267,25.817982788085942 c-0.1,-3.72 3.33,-6.59 6.79,-8 s7.3100000000000005,-1.8800000000000001 10.39,-4 c2.74,-1.84 4.57,-4.71 6.88,-7 a22.89,22.89 0 0 1 38.5,10.5 c1.33,5.29 0.42000000000000004,11.55 -3.75,15.07 c-4.84,4.08 -12,3.17 -18.23,1.9 s-13.23,-2.52 -18.41,1.13 c-3.12,2.19 -4.92,5.77 -6.83,9.08 s-4.3,6.68 -7.91,7.93 s-8.52,-0.91 -8.66,-4.72 " style="fill:#263238" id="svg_60"/><path d="M135.94999908447267,26.577982788085933 a6.22,6.22 0 0 0 -5.55,6.32 h0 l3.71,84 c0.16000000000000003,9.92 14.66,15.49 25.28,15.24 h0 c10.73,-0.25 11.07,-5.51 11.21,-14.95 c0.22000000000000003,-15.76 0.2,-21.68 0.21000000000000002,-21.59 s13.55,-2.2800000000000002 16.32,-20 c1.37,-8.79 0.9,-23.21 0.13,-35 c-0.6900000000000002,-10.61 -7.75,-23.61 -18.32,-22.47 z" style="fill:#ffbe9d" id="svg_61"/><path d="M184.20999908447266,51.73798278808593 a2.27,2.27 0 0 1 -2.18,2.29 a2.16,2.16 0 0 1 -2.34,-2 a2.26,2.26 0 0 1 2.18,-2.29 A2.16,2.16 0 0 1 184.20999908447266,51.73798278808593 z" style="fill:#263238" id="svg_62"/><path d="M184.14999908447265,48.137982788085935 c-0.28,0.30000000000000004 -2,-1 -4.44,-1 s-4.23,1.24 -4.5,0.9400000000000001 c-0.13,-0.13 0.16000000000000003,-0.6700000000000002 0.9400000000000001,-1.24 a6.19,6.19 0 0 1 3.59,-1.11 a6,6 0 0 1 3.54,1.13 C184.02999908447265,47.44798278808594 184.28999908447267,48.00798278808594 184.14999908447265,48.137982788085935 z" style="fill:#263238" id="svg_63"/><path d="M160.75999908447267,51.73798278808593 a2.27,2.27 0 0 1 -2.18,2.29 a2.16,2.16 0 0 1 -2.34,-2 a2.26,2.26 0 0 1 2.18,-2.29 A2.16,2.16 0 0 1 160.75999908447267,51.73798278808593 z" style="fill:#263238" id="svg_64"/><path d="M160.20999908447266,48.647982788085926 c-0.28,0.30000000000000004 -2,-1 -4.44,-1 s-4.23,1.24 -4.49,0.9400000000000001 c-0.13,-0.13 0.15000000000000002,-0.6700000000000002 0.93,-1.24 a6.22,6.22 0 0 1 3.59,-1.12 a6,6 0 0 1 3.54,1.1400000000000001 C160.03999908447267,47.97798278808594 160.29999908447266,48.51798278808593 160.20999908447266,48.647982788085926 z" style="fill:#263238" id="svg_65"/><path d="M169.05999908447265,66.72798278808594 c0,-0.14 1.5,-0.4 4,-0.7200000000000001 c0.6200000000000001,-0.07 1.21,-0.2 1.32,-0.6200000000000001 a3.27,3.27 0 0 0 -0.42000000000000004,-1.85 l-1.86,-4.74 c-2.5700000000000003,-6.75 -4.44,-12.3 -4.16,-12.4 s2.58,5.29 5.15,12 l1.78,4.77 a3.67,3.67 0 0 1 0.33000000000000007,2.44 a1.58,1.58 0 0 1 -1,0.92 a3.9,3.9 0 0 1 -1,0.14 C170.59999908447264,66.84798278808594 169.06999908447267,66.86798278808592 169.05999908447265,66.72798278808594 z" style="fill:#263238" id="svg_66"/><path d="M170.80999908447265,95.60798278808593 a45,45 0 0 1 -23.7,-6.27 s5.77,12.14 23.47,10.44 z" style="fill:#eb996e" id="svg_67"/><path d="M168.03999908447267,72.60798278808593 a4.39,4.39 0 0 0 -4,-1.62 a4,4 0 0 0 -2.77,1.49 a2.54,2.54 0 0 0 -0.18000000000000002,2.91 a2.93,2.93 0 0 0 3.2,0.8 a9.14,9.14 0 0 0 3.11,-1.87 a2.66,2.66 0 0 0 0.7000000000000001,-0.7200000000000001 a0.81,0.81 0 0 0 0,-0.91 " style="fill:#eb996e" id="svg_68"/><path d="M161.87999908447264,68.44798278808594 c0.4,0 0.41000000000000003,2.63 2.68,4.5 s5.09,1.58 5.11,2 c0,0.17 -0.6300000000000001,0.52 -1.82,0.55 a6.59,6.59 0 0 1 -4.27,-1.47 a5.75,5.75 0 0 1 -2.07,-3.7800000000000002 C161.39999908447265,69.07798278808593 161.69999908447267,68.44798278808594 161.87999908447264,68.44798278808594 z" style="fill:#263238" id="svg_69"/><path d="M161.20999908447266,44.367982788085925 c-0.24000000000000002,0.6700000000000002 -2.68,0.36000000000000004 -5.54,0.7100000000000001 s-5.18,1.1400000000000001 -5.5600000000000005,0.54 c-0.17,-0.28 0.23,-0.91 1.1600000000000001,-1.55 a9.72,9.72 0 0 1 8.46,-1 C160.81999908447267,43.53798278808594 161.34999908447264,44.05798278808595 161.20999908447266,44.367982788085925 z" style="fill:#263238" id="svg_70"/><path d="M183.20999908447266,41.07798278808593 c-0.43000000000000005,0.55 -2.11,0 -4.14,0 s-3.73,0.38000000000000006 -4.12,-0.2 c-0.18000000000000002,-0.28 0.09000000000000002,-0.8300000000000001 0.8400000000000001,-1.36 a6,6 0 0 1 6.65,0.19000000000000003 C183.20999908447266,40.23798278808593 183.41999908447266,40.80798278808595 183.20999908447266,41.07798278808593 z" style="fill:#263238" id="svg_71"/><path d="M123.59999908447264,84.75798278808594 A15.69,15.69 0 0 0 142.27999908447265,67.44798278808594 c-0.55,-4.35 -2.89,-8.76 -1.3800000000000001,-12.88 c2,-5.43 9.61,-7.1 11.63,-12.53 c1.17,-3.15 0.12000000000000001,-6.84 1.45,-9.93 c1.25,-2.9 4.3100000000000005,-4.57 7.29,-5.65 s6.16,-1.82 8.66,-3.7600000000000002 s4.05,-5.6 2.44,-8.33 a167.5,167.5 0 0 0 -38.64,9.39 c-2.89,1.08 -5.92,2.38 -7.63,4.94 c-1.8,2.72 -1.71,6.22 -1.56,9.48 c0.7400000000000001,15.88 -1.6800000000000002,30.75 -0.9400000000000001,46.63 " style="fill:#263238" id="svg_72"/><path d="M119.38999908447266,79.77798278808595 a1,1 0 0 1 -0.29000000000000004,-0.09000000000000002 a3.67,3.67 0 0 1 -0.81,-0.4 a5.87,5.87 0 0 1 -2.2,-2.6 a8.72,8.72 0 0 1 -0.5800000000000001,-5.37 a17.09,17.09 0 0 1 3.21,-6.43 c1.55,-2.16 3.52,-4.35 4.86,-7.14 a11,11 0 0 0 1.17,-4.5600000000000005 a15.17,15.17 0 0 0 -1,-4.92 a14.94,14.94 0 0 1 -1.05,-5.34 a12,12 0 0 1 5.75,-9.66 a13.76,13.76 0 0 1 5.83,-1.6600000000000001 a24.53,24.53 0 0 0 5.83,-1 a7.61,7.61 0 0 0 4.1,-3.6900000000000004 a28.28,28.28 0 0 0 1.94,-5.22 a28.25,28.25 0 0 1 2,-5 a18.91,18.91 0 0 1 6.63,-7.45 a14.34,14.34 0 0 1 8.39,-2.18 a10.79,10.79 0 0 1 6.61,2.71 a10.44,10.44 0 0 1 2.95,4.54 a8.41,8.41 0 0 1 0.41000000000000003,3.4 a5.13,5.13 0 0 1 -0.2,1.18 s0.07,-0.41000000000000003 0.1,-1.19 a8.85,8.85 0 0 0 -0.5,-3.33 a10.38,10.38 0 0 0 -9.39,-6.94 a14,14 0 0 0 -8.14,2.18 a18.48,18.48 0 0 0 -6.44,7.3 a27.54,27.54 0 0 0 -1.94,5 a28.5,28.5 0 0 1 -2,5.3100000000000005 a9.09,9.09 0 0 1 -1.79,2.36 a7.59,7.59 0 0 1 -2.58,1.57 a24.61,24.61 0 0 1 -6,1.06 a13.2,13.2 0 0 0 -5.62,1.59 a11.48,11.48 0 0 0 -5.51,9.22 a14.68,14.68 0 0 0 1,5.18 a15.31,15.31 0 0 1 1.05,5.08 a11.48,11.48 0 0 1 -1.24,4.74 c-1.4,2.8600000000000003 -3.39,5 -4.95,7.17 a16.76,16.76 0 0 0 -3.22,6.27 a8.48,8.48 0 0 0 0.47000000000000003,5.22 a6,6 0 0 0 2.08,2.6100000000000003 C118.98999908447266,79.63798278808594 119.39999908447265,79.73798278808593 119.38999908447266,79.77798278808595 z" style="fill:#455a64" id="svg_73"/><path d="M170.77999908447265,2.6679827880859364 a1.6400000000000001,1.6400000000000001 0 0 1 0.6900000000000002,0.21000000000000002 a7.06,7.06 0 0 1 1.6700000000000002,1 a8.57,8.57 0 0 1 1.75,11.71 a7.6,7.6 0 0 1 -1.3,1.45 c-0.36000000000000004,0.30000000000000004 -0.5800000000000001,0.43000000000000005 -0.6000000000000001,0.4 a24.86,24.86 0 0 0 1.59,-2 a8.63,8.63 0 0 0 -1.6700000000000002,-11.23 A22.76,22.76 0 0 0 170.77999908447265,2.6679827880859364 z" style="fill:#455a64" id="svg_74"/><path d="M209.95999908447266,124.03798278808594 a14.88,14.88 0 0 0 0.51,-1.8800000000000001 a8.66,8.66 0 0 0 -0.8700000000000001,-5.09 a11.81,11.81 0 0 0 -5.58,-5.2 a23.23,23.23 0 0 0 -4.35,-1.55 c-1.56,-0.4 -3.21,-0.7300000000000001 -4.86,-1.27 a11,11 0 0 1 -4.47,-2.44 a7.46,7.46 0 0 1 -2.11,-4.24 c-0.27,-1.49 -0.36000000000000004,-2.9 -0.6900000000000002,-4.16 a8.16,8.16 0 0 0 -1.61,-3.18 a9.19,9.19 0 0 0 -4.28,-2.91 c-1.19,-0.36000000000000004 -1.9,-0.36000000000000004 -1.9,-0.42000000000000004 a2.58,2.58 0 0 1 0.51,0 a8.32,8.32 0 0 1 1.45,0.23 a9.07,9.07 0 0 1 4.5,2.87 a8.45,8.45 0 0 1 1.75,3.31 c0.36000000000000004,1.31 0.47000000000000003,2.74 0.7500000000000001,4.18 a6.92,6.92 0 0 0 2,4 a10.64,10.64 0 0 0 4.27,2.31 c1.61,0.52 3.26,0.8600000000000001 4.83,1.27 A22.34,22.34 0 0 1 204.20999908447266,111.44798278808594 a12,12 0 0 1 5.7,5.47 a8.620000000000001,8.620000000000001 0 0 1 0.7400000000000001,5.29 a6.26,6.26 0 0 1 -0.45,1.3900000000000001 A2.42,2.42 0 0 1 209.95999908447266,124.03798278808594 z" style="fill:#455a64" id="svg_75"/><path d="M133.03999908447267,92.71798278808595 c-9,-2.4 -16.7,-11.17 -19.84,-19.9 s-3.14,-18.26 -2.33,-27.5 c0.5800000000000001,-6.69 1.7600000000000002,-13.77 6.2,-18.81 c6.7,-7.6 14,-11.48 24.08,-11.16 " style="fill:#263238" id="svg_76"/><path d="M185.33999908447265,112.21798278808595 l-8.35,-2.1 a4.75,4.75 0 0 0 1.6600000000000001,-5.82 a7.65,7.65 0 0 0 -6.38,-4.73 L134.20999908447266,95.26798278808593 a3,3 0 0 0 -3.19,1.8800000000000001 q-2.5300000000000002,6.44 -0.17,10.6 h-0.18000000000000002 l-7.34,1.46 L110.88999908447266,218.94798278808594 l81.48,-3.81 z" style="fill:#f5f5f5" id="svg_77"/><path d="M173.35999908447266,110.53798278808594 a8.61,8.61 0 0 1 -1.53,0.30000000000000004 c-1,0.16000000000000003 -2.43,0.33000000000000007 -4.21,0.51 a98.36,98.36 0 0 1 -27.89,-1.3900000000000001 c-1.7600000000000002,-0.35000000000000003 -3.17,-0.6700000000000002 -4.14,-0.93 a8.13,8.13 0 0 1 -1.49,-0.44000000000000006 a8.75,8.75 0 0 1 1.53,0.25 c1,0.19000000000000003 2.41,0.46 4.17,0.7600000000000001 a115.46,115.46 0 0 0 27.79,1.3800000000000001 c1.78,-0.12000000000000001 3.22,-0.25 4.22,-0.35000000000000003 A9.89,9.89 0 0 1 173.35999908447266,110.53798278808594 z" style="fill:#263238" id="svg_78"/><path d="M136.52999908447265,127.97798278808594 a29.92,29.92 0 0 1 2.85,-4.74 a29.58,29.58 0 0 1 3.29,-4.45 a29.56,29.56 0 0 1 -2.8600000000000003,4.74 A29.16,29.16 0 0 1 136.52999908447265,127.97798278808594 z" style="fill:#e0e0e0" id="svg_79"/><path d="M162.78999908447267,129.83798278808592 a57.29,57.29 0 0 1 -6.83,-8.5 a29.09,29.09 0 0 1 3.62,4.09 A28.19,28.19 0 0 1 162.78999908447267,129.83798278808592 z" style="fill:#e0e0e0" id="svg_80"/><path d="M150.58999908447265,143.78798278808594 a30.79,30.79 0 0 1 -1.23,-5.46 a28.81,28.81 0 0 1 -0.7100000000000001,-5.55 a30.52,30.52 0 0 1 1.23,5.46 A30.74,30.74 0 0 1 150.58999908447265,143.78798278808594 z" style="fill:#e0e0e0" id="svg_81"/><path d="M170.63999908447266,144.64798278808593 a44,44 0 0 1 -4.62,4.92 a43.13,43.13 0 0 1 -5,4.55 a43.91,43.91 0 0 1 4.62,-4.92 A45.49,45.49 0 0 1 170.63999908447266,144.64798278808593 z" style="fill:#e0e0e0" id="svg_82"/><path d="M143.74999908447265,163.34798278808591 a23.19,23.19 0 0 1 -8.67,-9.19 c0.14,-0.09000000000000002 1.6700000000000002,2.31 4.08,4.84 S143.84999908447264,163.21798278808592 143.74999908447265,163.34798278808591 z" style="fill:#e0e0e0" id="svg_83"/><path d="M152.38999908447266,177.7879827880859 c0,0.15000000000000002 -2.2800000000000002,0.8800000000000001 -4.92,2.29 s-4.57,2.89 -4.67,2.7600000000000002 a14.55,14.55 0 0 1 4.43,-3.23 A14.24,14.24 0 0 1 152.38999908447266,177.7879827880859 z" style="fill:#e0e0e0" id="svg_84"/><path d="M166.43999908447265,178.71798278808592 a9.83,9.83 0 0 1 -1.59,-1.71 c-0.92,-1.1 -2.15,-2.67 -3.43,-4.46 s-2.36,-3.46 -3.11,-4.7 a9.94,9.94 0 0 1 -1.1,-2.06 a11.49,11.49 0 0 1 1.4100000000000001,1.86 l3.23,4.6 l3.29,4.54 A11,11 0 0 1 166.43999908447265,178.71798278808592 z" style="fill:#e0e0e0" id="svg_85"/><path d="M167.84999908447264,191.0379827880859 a28.58,28.58 0 0 1 -6,1.4 a29,29 0 0 1 -6.15,0.6100000000000001 a48.42,48.42 0 0 1 6.07,-1.12 A51.76,51.76 0 0 1 167.84999908447264,191.0379827880859 z" style="fill:#e0e0e0" id="svg_86"/><path d="M145.09999908447264,108.98798278808593 c-0.07,0 0.41000000000000003,-0.6000000000000001 0.8200000000000001,-1.6600000000000001 a8.82,8.82 0 0 0 0.44000000000000006,-4.34 a17.7,17.7 0 0 0 -1.29,-4.27 a8.07,8.07 0 0 1 -0.6800000000000002,-1.7600000000000002 a5.92,5.92 0 0 1 1,1.61 a13.86,13.86 0 0 1 1.47,4.34 a8.13,8.13 0 0 1 -0.6100000000000001,4.57 A3.23,3.23 0 0 1 145.09999908447264,108.98798278808593 z" style="fill:#e0e0e0" id="svg_87"/><path d="M160.31999908447267,100.76798278808593 a9.11,9.11 0 0 1 1.61,6.88 c-0.15000000000000002,0 -0.17,-1.59 -0.6200000000000001,-3.48 S160.20999908447266,100.84798278808594 160.31999908447267,100.76798278808593 z" style="fill:#e0e0e0" id="svg_88"/><path d="M228.96999908447265,178.95798278808593 l37.9,-66.57 l4.57,-11.55 s11.82,-25.4 12.64,-28 c0.9500000000000001,-3 2.62,-3.24 3.7,-2.8200000000000003 c1.6800000000000002,0.6700000000000002 2.22,3.17 1.48,5.76 c-0.26,0.8900000000000001 -4.85,14.85 -4.85,14.85 a33.53,33.53 0 0 1 3.92,-2.91 c2.91,-2 8.24,-1.9 13.18,-0.14 s6.16,2.6900000000000004 5.57,4.63 a2.58,2.58 0 0 1 -1.59,1.57 a5,5 0 0 1 -3.6500000000000004,0.08000000000000002 c-7.94,-2.7 -11.46,0.8800000000000001 -11.46,0.8800000000000001 l-0.5900000000000001,1.51 s6,-1.9100000000000001 9.36,0.79 a5,5 0 0 1 1.24,1.44 a6.57,6.57 0 0 1 2.43,11.06 a2.73,2.73 0 0 1 -3,0.7600000000000001 a3.35,3.35 0 0 1 -1.13,-1.31 a5.78,5.78 0 0 0 -0.55,-0.7500000000000001 l-2.26,4 s-5.57,8.7 -7.57,12.77 L262.20999908447266,194.5379827880859 a18.4,18.4 0 0 1 -24,10.65 h0 A18.41,18.41 0 0 1 228.96999908447265,178.95798278808593 z" style="fill:#ffbe9d" id="svg_89"/><path d="M269.47999908447264,112.15798278808595 c1.34,0.8800000000000001 3.19,0.28 4.39,-0.7600000000000001 s2,-2.47 3.16,-3.6 c3.37,-3.37 9,-3.6900000000000004 12.23,-7.22 c0.45,-0.49000000000000005 0.8500000000000001,-1.24 0.46,-1.78 s-1.11,-0.44000000000000006 -1.71,-0.32000000000000006 l-15.51,3.07 " style="fill:#ffbe9d" id="svg_90"/><path d="M272.4999990844727,101.54798278808593 a6.65,6.65 0 0 1 1.6400000000000001,-0.5 c1.07,-0.27 2.63,-0.6200000000000001 4.55,-1 l6.76,-1.4300000000000002 l2,-0.41000000000000003 a3.16,3.16 0 0 1 2.37,0.08000000000000002 a1.34,1.34 0 0 1 0.5,1.4100000000000001 a2.6500000000000004,2.6500000000000004 0 0 1 -0.6000000000000001,1.1400000000000001 a10.22,10.22 0 0 1 -1.75,1.54 c-2.58,1.79 -5.41,2.52 -7.67,3.71 a11.45,11.45 0 0 0 -2.94,2 c-0.8,0.77 -1.4300000000000002,1.6500000000000001 -2.09,2.4 a5.58,5.58 0 0 1 -4.11,2.31 c-1.19,0 -1.6800000000000002,-0.5900000000000001 -1.6400000000000001,-0.6000000000000001 a4.65,4.65 0 0 0 1.62,0.25 a5.41,5.41 0 0 0 3.64,-2.37 a32.2,32.2 0 0 1 2.05,-2.52 a12.09,12.09 0 0 1 3.09,-2.22 c2.33,-1.26 5.15,-2 7.53,-3.7 a10.14,10.14 0 0 0 1.58,-1.3900000000000001 c0.44000000000000006,-0.49000000000000005 0.5900000000000001,-1.08 0.28,-1.25 s-1,-0.09000000000000002 -1.6900000000000002,0.05000000000000001 l-2,0.37000000000000005 l-6.8,1.25 c-1.94,0.3400000000000001 -3.51,0.6000000000000001 -4.6,0.7600000000000001 A5.52,5.52 0 0 1 272.4999990844727,101.54798278808593 z" style="fill:#eb996e" id="svg_91"/><path d="M289.57999908447266,96.26798278808593 a6.45,6.45 0 0 1 1.78,-2.4 a5,5 0 0 1 3,-1 a12.92,12.92 0 0 1 4,0.6600000000000001 a20.33,20.33 0 0 0 4.06,0.92 a6.54,6.54 0 0 0 3.4,-0.52 a2.59,2.59 0 0 0 1.45,-1.82 a1.62,1.62 0 0 0 0,-0.8500000000000001 c-0.06000000000000001,0 -0.06000000000000001,0.30000000000000004 -0.21000000000000002,0.8 a2.43,2.43 0 0 1 -1.4,1.5 a6.66,6.66 0 0 1 -3.19,0.36000000000000004 a22,22 0 0 1 -3.94,-1 a12.78,12.78 0 0 0 -4.14,-0.6400000000000001 a5.28,5.28 0 0 0 -3.23,1.2 a4.58,4.58 0 0 0 -1.35,1.8900000000000001 C289.5599990844727,95.95798278808593 289.53999908447264,96.25798278808594 289.57999908447266,96.26798278808593 z" style="fill:#eb996e" id="svg_92"/><path d="M289.52999908447265,74.77798278808595 a17,17 0 0 0 -0.9400000000000001,2.77 c-0.5900000000000001,1.92 -1.29,4.2 -2.07,6.72 s-1.55,4.78 -2.17,6.69 a15.93,15.93 0 0 0 -0.8300000000000001,2.8 a14.22,14.22 0 0 0 1.22,-2.66 c0.6600000000000001,-1.6800000000000002 1.5,-4 2.34,-6.65 s1.49,-5 1.9100000000000001,-6.79 A13.93,13.93 0 0 0 289.52999908447265,74.77798278808595 z" style="fill:#eb996e" id="svg_93"/><path d="M291.71999908447265,100.44798278808594 a3.23,3.23 0 0 0 0.92,0 a2.71,2.71 0 0 1 2.18,0.5800000000000001 a1.47,1.47 0 0 1 0.35000000000000003,1.4 a7.54,7.54 0 0 1 -0.7100000000000001,1.7600000000000002 a3.2800000000000002,3.2800000000000002 0 0 0 -0.37000000000000005,2.3 a2.81,2.81 0 0 0 1.78,1.79 a3.16,3.16 0 0 0 2.49,-0.25 a3.89,3.89 0 0 0 1.6500000000000001,-1.61 a12.870000000000001,12.870000000000001 0 0 0 1.1,-3.6 a7.37,7.37 0 0 0 0,-2.5300000000000002 a1.6400000000000001,1.6400000000000001 0 0 0 -0.35000000000000003,-0.8600000000000001 c-0.05000000000000001,0 0.08000000000000002,0.32000000000000006 0.13,0.8900000000000001 a8.83,8.83 0 0 1 -0.21000000000000002,2.43 a13.9,13.9 0 0 1 -1.1600000000000001,3.41 a3.13,3.13 0 0 1 -3.48,1.57 a2.22,2.22 0 0 1 -1.42,-1.4 a2.7600000000000002,2.7600000000000002 0 0 1 0.31000000000000005,-1.9100000000000001 a8.27,8.27 0 0 0 0.7000000000000001,-1.9100000000000001 a1.9,1.9 0 0 0 -0.55,-1.77 a2.85,2.85 0 0 0 -2.5,-0.52 A2.7600000000000002,2.7600000000000002 0 0 0 291.71999908447265,100.44798278808594 z" style="fill:#eb996e" id="svg_94"/><path d="M298.25999908447267,107.44798278808594 s-0.19000000000000003,0.26 -0.17,0.8200000000000001 a2.5300000000000002,2.5300000000000002 0 0 0 1.1600000000000001,1.9500000000000002 a3.38,3.38 0 0 0 3.37,0 a5.51,5.51 0 0 0 2.54,-3.24 a6.66,6.66 0 0 0 0,-4.12 a6.36,6.36 0 0 0 -1.85,-2.8 a6,6 0 0 0 -1.9300000000000002,-1.1600000000000001 a1.83,1.83 0 0 0 -0.81,-0.18000000000000002 a10.82,10.82 0 0 1 2.46,1.6400000000000001 a6.27,6.27 0 0 1 1.58,6.44 a5.15,5.15 0 0 1 -2.25,2.95 a3,3 0 0 1 -2.89,0.08000000000000002 a2.43,2.43 0 0 1 -1.1600000000000001,-1.6300000000000001 C298.20999908447266,107.75798278808594 298.3099990844727,107.44798278808594 298.25999908447267,107.44798278808594 z" style="fill:#eb996e" id="svg_95"/><path d="M285.63999908447266,113.72798278808594 a2.39,2.39 0 0 0 -1.34,-0.41000000000000003 a5.5,5.5 0 0 0 -3.48,0.8300000000000001 l0.43000000000000005,0.29000000000000004 a16.1,16.1 0 0 0 0.28,-2 c0.35000000000000003,-3.8600000000000003 -0.8800000000000001,-6.84 -1,-6.76 a31.19,31.19 0 0 1 0.43000000000000005,6.71 a17.7,17.7 0 0 1 -0.25,1.9100000000000001 l-0.12000000000000001,0.6500000000000001 l0.55,-0.37000000000000005 a5.78,5.78 0 0 1 3.15,-0.9400000000000001 C285.1199990844727,113.65798278808595 285.6199990844727,113.79798278808593 285.63999908447266,113.72798278808594 z" style="fill:#eb996e" id="svg_96"/><path d="M293.52999908447265,90.00798278808594 c-0.16000000000000003,0 0.06000000000000001,1.2 1.12,2.12 s2.25,1 2.25,0.8300000000000001 s-0.9500000000000001,-0.46 -1.86,-1.27 S293.6899990844727,89.94798278808594 293.52999908447265,90.00798278808594 z" style="fill:#eb996e" id="svg_97"/><path d="M175.20999908447266,234.19798278808594 l39.65,0.39000000000000007 L208.20999908447266,205.81798278808594 l2.23,5.43 a27.31,27.31 0 0 0 25.27,16.95 h0 c12.54,0 21.21,-9.33 26.51,-20.69 c12.4,-26.56 24.35,-69.33 24.35,-69.33 l-24.17,-21.24 c-17.5,33.1 -33.94,61.84 -33.94,61.84 s-4.75,-14.43 -8.42,-27.31 s-3.64,-19.64 -9.27,-26.06 c-8.67,-9.88 -21,-12.33 -32.48,-15.29 l-0.43000000000000005,53.44 L175.20999908447266,234.19798278808594 " style="fill:#984CFF" id="svg_98"/><path d="M129.83999908447265,194.44798278808594 L202.03999908447264,208.44798278808594 l3.51,27.74 H94.84999908447264 a21.8,21.8 0 0 1 -22,-23.52 c1.59,-20.22 3.3200000000000003,-45.12 4.640000000000001,-55.65 c1,-8.21 4.3,-16.7 8.17,-24 c5.59,-10.52 24.22,-24 40.55,-24.7 l3.09,68.77 " style="fill:#984CFF" id="svg_99"/><g style="opacity:0.4" id="svg_100"><path d="M175.20999908447266,234.19798278808594 l39.65,0.39000000000000007 L208.20999908447266,205.81798278808594 l2.23,5.43 a27.31,27.31 0 0 0 25.27,16.95 h0 c12.54,0 21.21,-9.33 26.51,-20.69 c12.4,-26.56 24.35,-69.33 24.35,-69.33 l-24.17,-21.24 c-17.5,33.1 -33.94,61.84 -33.94,61.84 s-4.75,-14.43 -8.42,-27.31 s-3.64,-19.64 -9.27,-26.06 c-8.67,-9.88 -21,-12.33 -32.48,-15.29 l-0.43000000000000005,53.44 L175.20999908447266,234.19798278808594 " id="svg_101"/><path d="M129.83999908447265,194.44798278808594 l65.12,11.94 a6.82,6.82 0 0 1 5.43,5.29 l5.16,24.57 H94.84999908447264 a21.8,21.8 0 0 1 -22,-23.52 c1.59,-20.22 3.3200000000000003,-45.12 4.640000000000001,-55.65 c1,-8.21 4.3,-16.7 8.17,-24 c5.59,-10.52 24.22,-24 40.55,-24.7 l3.09,68.77 " id="svg_102"/></g><path d="M116.08999908447265,192.38798278808594 a2.8200000000000003,2.8200000000000003 0 0 1 0,-0.6600000000000001 c0,-0.49000000000000005 0,-1.12 0,-1.8900000000000001 c0,-1.71 0,-4.07 0,-7 c0,-5.87 -0.11000000000000001,-14 -0.56,-22.93 c-0.23,-4.48 -0.52,-8.74 -0.8300000000000001,-12.6 a51.69,51.69 0 0 0 -1.45,-10.16 a14.55,14.55 0 0 0 -3.18,-6 A22.68,22.68 0 0 0 108.20999908447266,129.44798278808594 a7.74,7.74 0 0 1 2.05,1.53 a14.1,14.1 0 0 1 3.39,6.07 A50.16,50.16 0 0 1 115.20999908447266,147.30798278808595 c0.3400000000000001,3.87 0.6400000000000001,8.13 0.8700000000000001,12.61 c0.46,9 0.51,17.09 0.41000000000000003,23 c-0.06000000000000001,2.94 -0.14,5.32 -0.21000000000000002,7 l-0.11000000000000001,1.8900000000000001 A2.5,2.5 0 0 1 116.08999908447265,192.38798278808594 z" style="fill:#263238" id="svg_103"/><path d="M200.63999908447266,210.44798278808594 a11,11 0 0 0 -2.63,-2.13 a16.62,16.62 0 0 0 -3.6900000000000004,-1.47 c-1.49,-0.43000000000000005 -3.24,-0.7600000000000001 -5.17,-1.15 c-7.72,-1.58 -18.37,-3.77 -30.17,-6 s-22.54,-4 -30.31,-5.24 l-9.21,-1.47 l-2.5,-0.42000000000000004 a5.43,5.43 0 0 1 -0.8700000000000001,-0.18000000000000002 a5.16,5.16 0 0 1 0.8800000000000001,0.08000000000000002 l2.52,0.32000000000000006 c2.18,0.29000000000000004 5.34,0.7300000000000001 9.23,1.31 c7.79,1.1600000000000001 18.54,2.88 30.35,5.09 s22.46,4.45 30.15,6.11 c1.9300000000000002,0.42000000000000004 3.68,0.78 5.18,1.24 a15.93,15.93 0 0 1 3.71,1.58 a8,8 0 0 1 2,1.6 a4,4 0 0 1 0.42000000000000004,0.51 C200.59999908447264,210.34798278808591 200.64999908447265,210.44798278808594 200.63999908447266,210.44798278808594 z" style="fill:#263238" id="svg_104"/><path d="M116.30999908447265,192.38798278808594 c0,0.09000000000000002 -1.33,0.4 -3.39,1.24 a30.07,30.07 0 0 0 -3.5,1.7200000000000002 a31.32,31.32 0 0 0 -3.89,2.74 A30.6,30.6 0 0 0 102.20999908447266,201.44798278808594 a28.24,28.24 0 0 0 -2.3,3.14 c-1.18,1.8900000000000001 -1.7200000000000002,3.17 -1.81,3.13 a3.75,3.75 0 0 1 0.31000000000000005,-0.93 a20.35,20.35 0 0 1 1.18,-2.39 a26.51,26.51 0 0 1 2.25,-3.26 a25.75,25.75 0 0 1 7.4,-6.21 a23.82,23.82 0 0 1 3.59,-1.6500000000000001 a18.51,18.51 0 0 1 2.56,-0.7500000000000001 A3.33,3.33 0 0 1 116.30999908447265,192.38798278808594 z" style="fill:#263238" id="svg_105"/><path d="M209.53999908447264,209.66798278808596 a4.3,4.3 0 0 1 -0.15000000000000002,-0.6900000000000002 c-0.08000000000000002,-0.5 -0.19000000000000003,-1.1600000000000001 -0.32000000000000006,-2 c-0.28,-1.73 -0.6500000000000001,-4.23 -1.07,-7.33 c-0.8400000000000001,-6.19 -1.86,-14.77 -2.72,-24.27 s-1.37,-18.12 -1.6500000000000001,-24.37 c-0.14,-3.12 -0.22000000000000003,-5.65 -0.26,-7.4 q0,-1.25 0,-2 a3.75,3.75 0 0 1 0,-0.7000000000000001 a3,3 0 0 1 0.08000000000000002,0.7000000000000001 l0.13,2 c0.11000000000000001,1.8 0.25,4.3100000000000005 0.43000000000000005,7.38 c0.37000000000000005,6.24 0.9500000000000001,14.85 1.8,24.34 s1.82,18.07 2.5700000000000003,24.27 c0.37000000000000005,3.06 0.6800000000000002,5.55 0.9,7.35 c0.09000000000000002,0.8300000000000001 0.17,1.49 0.23,2 A2.85,2.85 0 0 1 209.53999908447264,209.66798278808596 z" style="fill:#263238" id="svg_106"/><path d="M233.47999908447264,198.91798278808596 s-0.23,-0.22000000000000003 -0.5800000000000001,-0.6600000000000001 a19.19,19.19 0 0 1 -1.33,-2 a26.35,26.35 0 0 1 -3.55,-15.16 a16.84,16.84 0 0 1 0.32000000000000006,-2.37 a3.33,3.33 0 0 1 0.22000000000000003,-0.8500000000000001 c0.09000000000000002,0 -0.1,1.24 -0.17,3.24 a29.82,29.82 0 0 0 3.5,15 C232.82999908447266,197.84798278808591 233.55999908447268,198.85798278808596 233.47999908447264,198.91798278808596 z" style="fill:#263238" id="svg_107"/><path d="M115.79999908447266,155.2279827880859 s-0.13,0.05000000000000001 -0.37000000000000005,0.08000000000000002 a9.33,9.33 0 0 1 -1.09,0.11000000000000001 a16.51,16.51 0 0 1 -4,-0.32000000000000006 a28.49,28.49 0 0 1 -5.69,-1.78 c-2.07,-0.8600000000000001 -4.27,-2 -6.57,-3.11 A49.42,49.42 0 0 0 91.40999908447264,147.44798278808594 a22.63,22.63 0 0 0 -5.74,-1.13 a18.62,18.62 0 0 0 -5.37,0.6100000000000001 a1.22,1.22 0 0 1 0.35000000000000003,-0.16000000000000003 a7,7 0 0 1 1,-0.35000000000000003 a13.72,13.72 0 0 1 4,-0.46 a21.81,21.81 0 0 1 5.88,1 a45.66,45.66 0 0 1 6.74,2.7800000000000002 c2.31,1.1400000000000001 4.49,2.26 6.53,3.13 a30.57,30.57 0 0 0 5.58,1.86 A24.87,24.87 0 0 0 115.79999908447266,155.2279827880859 z" style="fill:#fafafa" id="svg_108"/><path d="M128.20999908447266,152.79798278808593 a35.67,35.67 0 0 1 -5.88,1.26 a33.61,33.61 0 0 1 -6,0.7500000000000001 A35.67,35.67 0 0 1 122.20999908447266,153.54798278808596 A33.52,33.52 0 0 1 128.20999908447266,152.79798278808593 z" style="fill:#fafafa" id="svg_109"/><path d="M115.34999908447264,174.25798278808594 a7.63,7.63 0 0 1 -1.45,0.6300000000000001 c-0.9500000000000001,0.37000000000000005 -2.34,0.8700000000000001 -4.07,1.4300000000000002 a104.92,104.92 0 0 1 -13.82,3.42 c-2.74,0.48000000000000004 -5.37,0.8300000000000001 -7.77,1.07 a31.53,31.53 0 0 1 -6.42,0.17 a11,11 0 0 1 -4.16,-1.19 a6.6,6.6 0 0 1 -1,-0.6400000000000001 a1.56,1.56 0 0 1 -0.31000000000000005,-0.28 s0.48000000000000004,0.31000000000000005 1.3900000000000001,0.7400000000000001 a11.47,11.47 0 0 0 4.11,1 a33.07,33.07 0 0 0 6.33,-0.28 c2.39,-0.27 5,-0.6300000000000001 7.73,-1.11 a127.14,127.14 0 0 0 13.8,-3.25 c1.7400000000000002,-0.52 3.14,-1 4.11,-1.27 A10.76,10.76 0 0 1 115.34999908447264,174.25798278808594 z" style="fill:#fafafa" id="svg_110"/><path d="M127.87999908447264,179.52798278808592 a29.28,29.28 0 0 1 -5.45,0.35000000000000003 a29,29 0 0 1 -5.45,-0.17 a29.28,29.28 0 0 1 5.45,-0.35000000000000003 A29,29 0 0 1 127.87999908447264,179.52798278808592 z" style="fill:#fafafa" id="svg_111"/><path d="M76.41999908447266,225.08798278808592 a2,2 0 0 1 0.11000000000000001,-0.54 c0.1,-0.4 0.24000000000000002,-0.8900000000000001 0.4,-1.5 l0.30000000000000004,-1.08 c0.13,-0.39000000000000007 0.30000000000000004,-0.8 0.46,-1.25 a30.39,30.39 0 0 1 1.24,-3 l0.81,-1.71 c0.29000000000000004,-0.6000000000000001 0.6600000000000001,-1.18 1,-1.8 a44.15,44.15 0 0 1 2.46,-3.81 a45.57,45.57 0 0 1 15.57,-13.55 a43.63,43.63 0 0 1 4.12,-1.9100000000000001 c0.6700000000000002,-0.25 1.29,-0.54 1.92,-0.7400000000000001 l1.81,-0.5700000000000001 a28.38,28.38 0 0 1 3.16,-0.81 c0.47000000000000003,-0.1 0.9,-0.21000000000000002 1.3,-0.28 l1.12,-0.15000000000000002 l1.54,-0.19000000000000003 a1.84,1.84 0 0 1 0.54,0 a2.19,2.19 0 0 1 -0.53,0.13 l-1.52,0.29000000000000004 l-1.1,0.19000000000000003 l-1.29,0.32000000000000006 c-0.92,0.25 -2,0.46 -3.11,0.8800000000000001 l-1.78,0.6000000000000001 c-0.6200000000000001,0.21000000000000002 -1.24,0.5 -1.8900000000000001,0.7600000000000001 a44.6,44.6 0 0 0 -4.06,1.9300000000000002 a50.94,50.94 0 0 0 -8.45,5.86 a51.48,51.48 0 0 0 -7,7.55 c-0.9,1.3 -1.79,2.52 -2.47,3.75 c-0.35000000000000003,0.6100000000000001 -0.7200000000000001,1.18 -1,1.77 l-0.8400000000000001,1.6800000000000002 c-0.5700000000000001,1.06 -0.92,2.08 -1.3,3 c-0.17,0.44000000000000006 -0.35000000000000003,0.8500000000000001 -0.49000000000000005,1.23 l-0.35000000000000003,1.06 l-0.49000000000000005,1.47 A2.12,2.12 0 0 1 76.41999908447266,225.08798278808592 z" style="fill:#fafafa" id="svg_112"/><path d="M126.56999908447267,194.36798278808595 a18,18 0 0 0 -4.1,5.16 a24.86,24.86 0 0 0 -2.3,6.79 a70.44,70.44 0 0 0 -1,8.79 a63.13,63.13 0 0 1 -1,8.85 a24.48,24.48 0 0 1 -2.51,6.85 a15.07,15.07 0 0 1 -3,3.85 a8.47,8.47 0 0 1 -1.05,0.8300000000000001 c-0.25,0.17 -0.39000000000000007,0.26 -0.4,0.24000000000000002 a17.56,17.56 0 0 0 4.18,-5.1 a24.92,24.92 0 0 0 2.36,-6.76 a65.07,65.07 0 0 0 1,-8.79 a64.92,64.92 0 0 1 1,-8.86 a24.4,24.4 0 0 1 2.44,-6.86 a15.5,15.5 0 0 1 3,-3.9 a10,10 0 0 1 1,-0.8400000000000001 A1.79,1.79 0 0 1 126.56999908447267,194.36798278808595 z" style="fill:#fafafa" id="svg_113"/><path d="M143.63999908447266,236.35798278808596 c-0.14,0 0,-8.620000000000001 0.37000000000000005,-19.24 s0.7500000000000001,-19.23 0.8900000000000001,-19.23 s0,8.620000000000001 -0.37000000000000005,19.25 S143.77999908447265,236.36798278808595 143.63999908447266,236.35798278808596 z" style="fill:#fafafa" id="svg_114"/><path d="M170.77999908447265,234.87798278808594 a6.6,6.6 0 0 1 -0.44000000000000006,-1.25 a15.16,15.16 0 0 1 -0.41000000000000003,-1.5 c-0.13,-0.5900000000000001 -0.31000000000000005,-1.26 -0.42000000000000004,-2 a35.53,35.53 0 0 1 -0.53,-5.34 a37.51,37.51 0 0 1 2,-12.95 a36,36 0 0 1 2.11,-4.94 c0.33000000000000007,-0.6900000000000002 0.7000000000000001,-1.27 1,-1.79 a13.25,13.25 0 0 1 0.8400000000000001,-1.31 a5.93,5.93 0 0 1 0.79,-1.06 c0.09000000000000002,0.05000000000000001 -1,1.6 -2.31,4.33 a39.14,39.14 0 0 0 -2,4.92 a39.26,39.26 0 0 0 -2,12.79 a41.14,41.14 0 0 0 0.41000000000000003,5.29 C170.31999908447267,233.04798278808596 170.87999908447264,234.84798278808591 170.77999908447265,234.87798278808594 z" style="fill:#fafafa" id="svg_115"/><path d="M124.68999908447265,124.35798278808593 c0,0.08000000000000002 -1.58,-0.6100000000000001 -4.18,-1.45 a47.47,47.47 0 0 0 -21,-1.86 c-2.7,0.37000000000000005 -4.35,0.79 -4.37,0.7000000000000001 a4.48,4.48 0 0 1 1.13,-0.37000000000000005 a29,29 0 0 1 3.18,-0.6900000000000002 a42.52,42.52 0 0 1 21.18,1.87 a32.43,32.43 0 0 1 3,1.23 A4.890000000000001,4.890000000000001 0 0 1 124.68999908447265,124.35798278808593 z" style="fill:#fafafa" id="svg_116"/><path d="M203.68999908447267,166.44798278808594 a27.21,27.21 0 0 1 -3.71,-0.06000000000000001 c-2.29,-0.09000000000000002 -5.45,-0.21000000000000002 -8.94,-0.29000000000000004 s-6.65,-0.13 -8.94,-0.15000000000000002 a27.8,27.8 0 0 1 -3.71,-0.13 a4.48,4.48 0 0 1 1,-0.12000000000000001 c0.6400000000000001,0 1.57,-0.09000000000000002 2.72,-0.12000000000000001 c2.29,-0.07 5.45,-0.09000000000000002 8.95,0 s6.66,0.27 9,0.46 c1.1400000000000001,0.09000000000000002 2.06,0.17 2.7,0.25 A4.42,4.42 0 0 1 203.68999908447267,166.44798278808594 z" style="fill:#fafafa" id="svg_117"/><path d="M223.42999908447268,162.65798278808592 c0,0.09000000000000002 -1.25,0.52 -3.2,1.48 a31.3,31.3 0 0 0 -12.5,11.14 c-1.18,1.83 -1.75,3.05 -1.83,3 a2.87,2.87 0 0 1 0.32000000000000006,-0.9 a20.38,20.38 0 0 1 1.2,-2.31 a27.77,27.77 0 0 1 5.46,-6.61 a28.27,28.27 0 0 1 7.19,-4.67 a21.27,21.27 0 0 1 2.43,-0.92 A3.66,3.66 0 0 1 223.42999908447268,162.65798278808592 z" style="fill:#fafafa" id="svg_118"/><path d="M213.68999908447267,130.60798278808593 a14.89,14.89 0 0 0 -5.08,0.7100000000000001 a34.14,34.14 0 0 0 -5.13,2.2800000000000002 a41.58,41.58 0 0 1 -6.34,2.85 a25.83,25.83 0 0 1 -12.53,0.81 a22.49,22.49 0 0 1 -3.6900000000000004,-1 a6.640000000000001,6.640000000000001 0 0 1 -1.29,-0.56 c0,-0.1 1.8800000000000001,0.6900000000000002 5,1.2 a26.86,26.86 0 0 0 12.31,-0.9500000000000001 a45.23,45.23 0 0 0 6.29,-2.7800000000000002 a31.64,31.64 0 0 1 5.23,-2.2 a11.78,11.78 0 0 1 3.8,-0.55 a7.13,7.13 0 0 1 1,0.1 C213.56999908447267,130.55798278808595 213.69999908447267,130.58798278808592 213.68999908447267,130.60798278808593 z" style="fill:#fafafa" id="svg_119"/><path d="M208.69999908447267,197.62798278808594 a5.22,5.22 0 0 1 -1.1600000000000001,0.55 c-0.38000000000000006,0.16000000000000003 -0.8500000000000001,0.35000000000000003 -1.4100000000000001,0.53 s-1.19,0.42000000000000004 -1.9,0.6000000000000001 a39,39 0 0 1 -5.1,1.06 a41.39,41.39 0 0 1 -6.36,0.33000000000000007 a42.78,42.78 0 0 1 -6.33,-0.7100000000000001 a38.1,38.1 0 0 1 -5,-1.37 c-0.7100000000000001,-0.22000000000000003 -1.32,-0.49000000000000005 -1.86,-0.7100000000000001 s-1,-0.43000000000000005 -1.3800000000000001,-0.6100000000000001 a6,6 0 0 1 -1.13,-0.6200000000000001 c0,-0.09000000000000002 1.6900000000000002,0.7100000000000001 4.49,1.59 a41.74,41.74 0 0 0 5,1.24 a41.22,41.22 0 0 0 12.54,0.38000000000000006 a42,42 0 0 0 5.06,-0.9400000000000001 C206.97999908447264,198.2279827880859 208.66999908447264,197.5379827880859 208.69999908447267,197.62798278808594 z" style="fill:#fafafa" id="svg_120"/><path d="M231.67999908447268,227.2279827880859 a2.05,2.05 0 0 1 -0.39000000000000007,-0.32000000000000006 c-0.23,-0.23 -0.6100000000000001,-0.54 -1,-1 a23.81,23.81 0 0 1 -3.16,-4.24 a34.55,34.55 0 0 1 -4.46,-16.75 a67.41,67.41 0 0 1 2.27,-17.27 c0.54,-2.16 1,-3.9 1.37,-5.09 c0.17,-0.55 0.31000000000000005,-1 0.42000000000000004,-1.37 s0.16000000000000003,-0.48000000000000004 0.18000000000000002,-0.47000000000000003 a1.6700000000000002,1.6700000000000002 0 0 1 -0.08000000000000002,0.49000000000000005 c-0.08000000000000002,0.38000000000000006 -0.19000000000000003,0.8400000000000001 -0.32000000000000006,1.4 c-0.30000000000000004,1.29 -0.7100000000000001,3 -1.21,5.13 A72.31,72.31 0 0 0 223.20999908447266,204.89798278808593 A35.41,35.41 0 0 0 227.41999908447264,221.44798278808594 a26.64,26.64 0 0 0 3,4.29 C231.20999908447266,226.69798278808594 231.70999908447266,227.18798278808595 231.67999908447268,227.2279827880859 z" style="fill:#fafafa" id="svg_121"/><path d="M268.06999908447267,193.26798278808593 a19.73,19.73 0 0 0 -5.29,-3 a42.58,42.58 0 0 0 -6.4,-1.6700000000000002 a71,71 0 0 1 -8,-1.83 a32.84,32.84 0 0 1 -12.67,-7.62 a30.2,30.2 0 0 1 -3,-3.37 c-0.33000000000000007,-0.42000000000000004 -0.55,-0.77 -0.7100000000000001,-1 s-0.23,-0.36000000000000004 -0.21000000000000002,-0.37000000000000005 a12.63,12.63 0 0 1 1.08,1.24 a34.75,34.75 0 0 0 3.09,3.23 a33.93,33.93 0 0 0 12.57,7.39 a76.83,76.83 0 0 0 7.91,1.86 a41,41 0 0 1 6.44,1.79 a15.31,15.31 0 0 1 3.94,2.2 a7.91,7.91 0 0 1 0.92,0.81 C267.98999908447263,193.14798278808593 268.08999908447265,193.25798278808594 268.06999908447267,193.26798278808593 z" style="fill:#fafafa" id="svg_122"/><path d="M279.50999908447267,159.89798278808593 a7.47,7.47 0 0 1 -1.07,-0.93 c-0.33000000000000007,-0.31000000000000005 -0.7300000000000001,-0.6900000000000002 -1.23,-1.11 s-1,-0.92 -1.6800000000000002,-1.4 a45.88,45.88 0 0 0 -4.640000000000001,-3.29 a46.57,46.57 0 0 0 -12.76,-5.46 a48.05,48.05 0 0 0 -5.59,-1.09 c-0.8,-0.13 -1.53,-0.18000000000000002 -2.17,-0.24000000000000002 s-1.2,-0.11000000000000001 -1.6500000000000001,-0.13 a8.09,8.09 0 0 1 -1.4100000000000001,-0.13 a6.8100000000000005,6.8100000000000005 0 0 1 1.4100000000000001,-0.07 a16.67,16.67 0 0 1 1.6700000000000002,0 c0.6400000000000001,0 1.3900000000000001,0.05000000000000001 2.2,0.16000000000000003 a43.35,43.35 0 0 1 5.65,1 a48.54,48.54 0 0 1 6.68,2.24 a47.47,47.47 0 0 1 6.22,3.2800000000000002 a43,43 0 0 1 4.63,3.41 c0.6400000000000001,0.51 1.1600000000000001,1 1.6400000000000001,1.48 a16,16 0 0 1 1.17,1.18 A6.72,6.72 0 0 1 279.50999908447267,159.89798278808593 z" style="fill:#fafafa" id="svg_123"/><path d="M192.00999908447267,113.99798278808595 a7.46,7.46 0 0 1 -1.9,0.91 a34.42,34.42 0 0 1 -4.85,1.5 a34.85,34.85 0 0 1 -5,0.8 a7,7 0 0 1 -2.1,0 c0,-0.16000000000000003 3.17,-0.42000000000000004 7,-1.33 S191.94999908447267,113.84798278808594 192.00999908447267,113.99798278808595 z" style="fill:#fafafa" id="svg_124"/><path d="M227.47999908447264,254.83798278808592 a2.7800000000000002,2.7800000000000002 0 0 1 -3.06,3.5300000000000002 h0 a2.77,2.77 0 0 1 -2.2800000000000002,-2 l-0.8500000000000001,-3.14 l0.13,0 a2.91,2.91 0 0 1 -3.25,3.43 h0 c-1.31,0 -2.44,-1.9100000000000001 -2.8200000000000003,-2.92 h0 a5.44,5.44 0 0 1 -5.08,-2.44 l-5.87,-9.16 l-10.870000000000001,-7.95 l6.58,-23.49 l23.39,15.14 c0.92,0.7200000000000001 1.06,1 2.52,2.37 l15.1,13.89 c-1.71,1 -3.16,0.9500000000000001 -5.54,0 s-12.8,-8 -12.8,-8 l4.7,20.65 " style="fill:#ffbe9d" id="svg_125"/><path d="M207.46999908447265,235.51798278808593 s0.27,0.12000000000000001 0.6900000000000002,0.41000000000000003 l0.78,0.54 a4.72,4.72 0 0 1 1,0.8400000000000001 a4.35,4.35 0 0 1 0.8,1.35 c0.18000000000000002,0.53 0.37000000000000005,1.07 0.5700000000000001,1.6400000000000001 l1.28,3.7600000000000002 c0.8900000000000001,2.68 1.6700000000000002,5.1 2.21,6.87 a16.9,16.9 0 0 1 0.77,2.89 a17.1,17.1 0 0 1 -1.12,-2.7800000000000002 c-0.6300000000000001,-1.7400000000000002 -1.47,-4.14 -2.36,-6.8100000000000005 c-0.43000000000000005,-1.33 -0.8500000000000001,-2.6 -1.24,-3.77 c-0.18000000000000002,-0.5800000000000001 -0.35000000000000003,-1.13 -0.52,-1.6500000000000001 a4.25,4.25 0 0 0 -0.6700000000000002,-1.27 a5.19,5.19 0 0 0 -0.8600000000000001,-0.8400000000000001 l-0.7200000000000001,-0.6100000000000001 C207.64999908447265,235.74798278808595 207.44999908447267,235.54798278808596 207.46999908447265,235.51798278808593 z" style="fill:#eb996e" id="svg_126"/><path d="M221.53999908447264,253.76798278808593 a4.48,4.48 0 0 1 -0.33000000000000007,-1 l-0.7500000000000001,-2.68 c-0.6400000000000001,-2.26 -1.49,-5.39 -2.58,-8.8 s-2.23,-6.45 -3.6,-8.33 a7.23,7.23 0 0 0 -1.9100000000000001,-1.9100000000000001 c-0.55,-0.3400000000000001 -0.9,-0.44000000000000006 -0.8900000000000001,-0.5 a0.6700000000000002,0.6700000000000002 0 0 1 0.27,0.05000000000000001 a3.5700000000000003,3.5700000000000003 0 0 1 0.7200000000000001,0.27 a6.57,6.57 0 0 1 2.11,1.87 c1.49,1.9 2.6900000000000004,5 3.79,8.39 s1.9,6.58 2.44,8.870000000000001 c0.27,1.1400000000000001 0.47000000000000003,2.07 0.6000000000000001,2.72 A3.52,3.52 0 0 1 221.53999908447264,253.76798278808593 z" style="fill:#eb996e" id="svg_127"/><path d="M227.57999908447266,255.18798278808595 a4.46,4.46 0 0 1 -0.41000000000000003,-1.05 c-0.25,-0.8 -0.56,-1.77 -0.93,-2.92 c-0.7600000000000001,-2.47 -1.77,-5.890000000000001 -2.8600000000000003,-9.67 s-2,-7.1 -2.75,-9.7 a4.66,4.66 0 0 0 -1.6,-2.44 a6.08,6.08 0 0 0 -1,-0.52 a0.6400000000000001,0.6400000000000001 0 0 1 0.30000000000000004,0 a2.46,2.46 0 0 1 0.79,0.33000000000000007 a4.7,4.7 0 0 1 1.83,2.49 c0.8200000000000001,2.47 1.79,5.890000000000001 2.9,9.67 s2.05,7.23 2.72,9.72 c0.30000000000000004,1.1600000000000001 0.56,2.15 0.7600000000000001,3 A5.35,5.35 0 0 1 227.57999908447266,255.18798278808595 z" style="fill:#eb996e" id="svg_128"/></g></g></svg>