<svg xmlns="http://www.w3.org/2000/svg" viewBox="0 0 500 500"><g id="freepik--Character--inject-18"><polygon points="181.38 314.51 184.16 331.19 203 432.89 206.03 432.89 192.34 331.19 190.31 314.51 181.38 314.51" style="fill:#c7c7c7"></polygon><polygon points="190.31 314.51 181.38 314.51 184.16 331.19 192.34 331.19 190.31 314.51" style="fill:#a6a6a6"></polygon><polygon points="122.24 432.89 125.28 432.89 144.11 331.19 146.89 314.51 137.96 314.51 135.94 331.19 122.24 432.89" style="fill:#c7c7c7"></polygon><polygon points="137.96 314.51 135.94 331.19 144.11 331.19 146.89 314.51 137.96 314.51" style="fill:#a6a6a6"></polygon><polygon points="65.75 432.89 68.79 432.89 87.62 331.19 90.4 314.51 81.47 314.51 79.45 331.19 65.75 432.89" style="fill:#c7c7c7"></polygon><polygon points="79.45 331.19 87.62 331.19 90.4 314.51 81.47 314.51 79.45 331.19" style="fill:#a6a6a6"></polygon><polygon points="70.57 322.35 208.57 322.35 208.57 307.81 156.91 307.81 130.01 157.09 56.75 157.09 70.57 322.35" style="fill:#c7c7c7"></polygon><polygon points="71.16 307.81 208.57 307.81 208.57 322.35 70.64 322.35 71.16 307.81" style="fill:#dbdbdb"></polygon><polygon points="70.57 322.35 78.09 322.35 63.92 157.09 56.75 157.09 70.57 322.35" style="fill:#dbdbdb"></polygon><path d="M194.42,457.27c-2.87-.39-75.17-36.46-77-39.5-.23-.35,2.88-6.95,7.31-15.93,10-20.33,30-54.7,30-54.7l43.52,24.46-24,45.38s8,9.74,14.57,18c0,0,0,0,0,0,4,5.09,7.47,9.61,8.1,11C198.62,449.51,197.29,457.67,194.42,457.27Z" style="fill: rgb(255, 196, 192);"></path><path d="M194.42,457.27c-2.87-.39-75.17-36.46-77-39.5-.23-.35,2.88-6.95,7.31-15.93,16.07,12.65,60.91,42.18,64.13,39.08,1.28-1.24,1-3.5,0-5.91,4,5.09,7.47,9.61,8.1,11C198.62,449.51,197.29,457.67,194.42,457.27Z" style="fill:#263238"></path><path d="M182.89,413l-50.43-26.61s38.47-75.4,37.46-76.71c-3.53-4.55-46.13-2.48-64.53-20.77-19.48-19.36-4.6-46.93-4.6-46.93h50.9s-.47,13.81,1.72,15.62c1.45,1.21,76.29,8.42,79.22,28.17C237.7,319.92,182.89,413,182.89,413Z" style="fill:#37474f"></path><path d="M186,403.56c-6.06-3.66-12.28-7-18.52-10.4s-12.51-6.64-18.85-9.78c-3.58-1.77-7.23-3.38-10.82-5.14a.1.1,0,0,0-.09.17c3.14,1.69,6.19,3.54,9.32,5.24s6.18,3.35,9.29,5c6.25,3.32,12.55,6.56,18.82,9.84,3.54,1.85,7.12,3.6,10.72,5.31A.13.13,0,1,0,186,403.56Z" style="fill:#263238"></path><path d="M190,301.27c-1.25-2.59-4.58-3-7.05-3.59q-10.15-2.54-20.3-5.05c-12-3-24.36-5.78-35.1-12.13-5.13-3-10.12-6.87-12.68-12.41s-2.56-11.44-2.6-17.29c0-1.44.08-2.89.17-4.33,0-.12-.19-.12-.2,0-.37,5.76-1,11.52.33,17.22a23.38,23.38,0,0,0,3.23,7.77,26.65,26.65,0,0,0,5.85,6.14c9.5,7.46,21.42,11,32.95,14,6.51,1.67,13.05,3.25,19.58,4.85l10.09,2.47a9.25,9.25,0,0,1,4.14,1.63,4.36,4.36,0,0,1,1.25,3.66,14.35,14.35,0,0,1-1,4c-.6,1.58-1.24,3.15-1.88,4.72q-1.86,4.59-3.82,9.14-4,9.18-8.22,18.22c-5.66,12-11.71,23.85-17.87,35.61-.77,1.46-1.52,2.94-2.27,4.41,0,.09.09.16.14.08,6.6-11.63,12.77-23.52,18.64-35.53s11.38-24,16.1-36.45C190.26,306.21,191.05,303.51,190,301.27Z" style="fill:#263238"></path><path d="M339.35,460c-2.76.91-83.55.05-86.53-1.88-.35-.21-.38-17.53-.38-17.53-13.26-30.12-25.27-59.25-25.27-59.25l56.48-.07,20,51.29s11.49,5.24,21,9.83l0,0c5.83,2.81,10.91,5.38,12.07,6.32C339.73,451.14,342.1,459.06,339.35,460Z" style="fill: rgb(255, 196, 192);"></path><path d="M339.35,460c-2.76.91-83.55.05-86.53-1.88-.35-.21-.44-7.51-.38-17.53,20,4.36,73.22,11.33,74.76,7.13.61-1.66-.66-3.56-2.57-5.31,5.83,2.81,10.91,5.38,12.07,6.32C339.73,451.14,342.1,459.06,339.35,460Z" style="fill:#263238"></path><path d="M299.47,421.68l-61-.45s-30.68-79-35.62-84.3c-2.51-2.69-19.3-5.67-39.34-10.07l-.11,0c-7.41-1.63-15.26-3.45-23-5.53-20.12-5.37-39.47-12.43-48.29-22.18-18.43-20.38,0-57.2,0-57.2h51.94s1.29,16-2.69,25.84c0,0,38.21,5.61,70.39,16.05,18.23,5.92,34.52,13.39,40.83,22.28C264.92,323.49,299.47,421.68,299.47,421.68Z" style="fill:#37474f"></path><path d="M292.59,412.53c-7.07-.52-14.14-.7-21.22-.87s-14.17-.25-21.25-.17c-4,0-8,.27-12,.33a.1.1,0,1,0,0,.19c3.56.08,7.12.35,10.69.44s7,.18,10.53.24c7.08.12,14.16.15,21.24.23,4,.05,8,0,12-.13A.13.13,0,0,0,292.59,412.53Z" style="fill:#263238"></path><path d="M118.58,249.51a3.48,3.48,0,0,1-.29.69.09.09,0,0,0,0,.12c-.69,2.13-1,4.39-1.63,6.52a10.15,10.15,0,0,1-3.94,5.63c-4,2.8-8.88,4.07-13.56,5.23-.15,0-.1.25,0,.26a25.85,25.85,0,0,0,8-1.23A21,21,0,0,0,114,263.5a10.56,10.56,0,0,0,3.87-5.82,36.81,36.81,0,0,0,.67-3.75,29.19,29.19,0,0,0,.47-4.38A.2.2,0,0,0,118.58,249.51Z" style="fill:#263238"></path><path d="M150.88,264.21a59.27,59.27,0,0,0-9.34,3.56l-.15.07a2.26,2.26,0,0,0,.14-.57c0-.22.08-.45.11-.67s.06-.47.08-.71l0-.36v0a2.76,2.76,0,0,0,2-1,7.28,7.28,0,0,0,1.25-2.93c.35-1.33.68-2.67,1-4s.59-3,.83-4.51a29.14,29.14,0,0,0,.51-4.47.21.21,0,0,0-.41,0c-.35,1.37-.51,2.8-.77,4.19s-.56,2.79-.88,4.18-.67,2.77-1,4.14-.68,3-2.1,3.39c-2.91.83-1.6-5.71-1.47-7,.29-3,.48-6,1-8.92a.1.1,0,0,0-.19-.05c-.63,2.7-1.35,5.35-1.83,8.09-.24,1.33-.41,2.69-.55,4a6.24,6.24,0,0,0,.26,3.48,2.55,2.55,0,0,0,1.93,1.42l-.09.31c-.07.21-.14.43-.19.65s-.11.44-.16.66a1.6,1.6,0,0,0-.09.81.33.33,0,0,0,.14.17c-1.25.54-2.49,1.08-3.72,1.65a32.53,32.53,0,0,0-4.48,2.18c-.17.08,0,.31.12.28a33,33,0,0,0,4.7-1.7c1.56-.6,3.1-1.23,4.64-1.87a58.76,58.76,0,0,0,8.88-4.14A.14.14,0,0,0,150.88,264.21Z" style="fill:#263238"></path><path d="M233.89,383q-4.83-11.94-10.21-23.64T212.3,336.23c-1.73-3.32-3.3-6.68-6.78-8.46a25,25,0,0,0-5-1.78c-2-.54-4-1.06-6.08-1.58-16.54-4.17-33.26-7.62-49.69-12.23-8.22-2.3-16.36-4.9-24.31-8-6.45-2.52-12.89-5.45-18.26-9.91a29.19,29.19,0,0,1-6.55-7.46c-2-3.41-6.79-12.68.26-40.76,0-.12-.14-.22-.18-.1-5.62,20-4.43,30.9-3.4,34.87a25.33,25.33,0,0,0,4.61,9.31c4.16,5.31,10,9,16,11.87a167.85,167.85,0,0,0,22.26,8.34c16.38,5.13,33.18,8.73,49.86,12.68,4.14,1,8.27,2,12.39,3,3.68.94,8,1.69,10.62,4.68a24.23,24.23,0,0,1,3.08,5.09q1.49,2.87,2.94,5.74,3,5.91,5.84,11.86,11.25,23.52,20.48,47.94c.76,2,1.51,4,2.28,6,.06.15.3.08.25-.08C240.28,399.12,237.12,391,233.89,383Z" style="fill:#263238"></path><path d="M211.57,353.89a58.51,58.51,0,0,0-4.4-10.87c-1.62-3.19-3.44-7-7-8.35a52.14,52.14,0,0,0-5.79-1.59q-3.06-.78-6.14-1.51-6.16-1.45-12.36-2.76c-4.6-1-9.24-1.87-13.91-2.37-.11,0-.12.16,0,.19,3.95,1.15,8,2,12,3s7.81,1.85,11.71,2.8,8,2,12,3a9.76,9.76,0,0,1,4.68,2.47c1.79,1.76,7.94,14.7,8.93,16.63C211.54,355.12,211.73,354.47,211.57,353.89Z" style="fill:#263238"></path><path d="M232.81,291.42A94.2,94.2,0,0,0,218,284.65c-5.83-2-11.79-3.65-17.73-5.27q-18.35-5-37.09-8.35-5.33-1-10.68-1.81a95,95,0,0,0-10.5-1.29c-.13,0-.14.18,0,.21,3.08.76,6.26,1.24,9.39,1.77s6.19,1.09,9.28,1.68q9.25,1.77,18.45,3.86c12.14,2.76,24.29,5.77,36.15,9.52a157.59,157.59,0,0,1,17.31,6.9A.26.26,0,0,0,232.81,291.42Z" style="fill:#263238"></path><path d="M163.41,208.53c-.67,0-3.77-.16-8.32-.33a25.52,25.52,0,0,1-1.69-15.43c.22-1.19-3.06,5.53-2.54,15.27-8.79-.34-20.74-.82-31.17-1.33,0-4.08-.08-7.87-.08-7.87a45.47,45.47,0,0,1-2.19,7.77c-1.43-.06-2.83-.15-4.17-.21a159.83,159.83,0,0,0,.32-17.38,55.73,55.73,0,0,1-6.25,17c-6.62-.39-11-.77-10.67-1.07,10.74-10.85,3.82-17.92,7.31-27.86,4.18-11.9,14.75-13.16,15-22.28.24-7.42.16-20.92,9.7-23.2a18.06,18.06,0,0,1,19.79-2.51c14.43,6.6,7.14,29.06,7.85,33.77,1,6.73,4,9.26,5.91,17s-1.89,12.67-2.61,17.84S165.07,208.62,163.41,208.53Z" style="fill:#263238"></path><path d="M96.46,203.34a25.86,25.86,0,0,0,3.62-6.28c.9-2.21.72-4.54.41-6.95s-.69-4.86-.76-7.4a19.35,19.35,0,0,1,1.22-7.57,16.93,16.93,0,0,1,4.4-6.32,44.17,44.17,0,0,1,6-4.47,27.3,27.3,0,0,0,5.56-4.54,13.3,13.3,0,0,0,3.08-6.45,12.45,12.45,0,0,1-2.37,7,25,25,0,0,1-5.42,5.17,56.79,56.79,0,0,0-5.6,4.58,16.13,16.13,0,0,0-3.83,5.73,19,19,0,0,0-1.13,6.85c0,2.38.28,4.79.44,7.27a25.23,25.23,0,0,1,0,3.79,11,11,0,0,1-1.07,3.71A21.18,21.18,0,0,1,96.46,203.34Z" style="fill:#263238"></path><path d="M156.29,138.17a37.68,37.68,0,0,1,1.45,9c.19,3,.22,6.06.23,9.08l0,4.5a22.79,22.79,0,0,0,.41,4.33,23.78,23.78,0,0,0,3.55,7.9,35.56,35.56,0,0,1,2.17,4.11,21.51,21.51,0,0,1,1.36,4.53,30.38,30.38,0,0,1,.36,4.66,19.34,19.34,0,0,1-.55,4.66c-.37,1.52-.89,3-1.35,4.36a23.21,23.21,0,0,0-1,4.3,9.28,9.28,0,0,0,3.16,7.88,9.41,9.41,0,0,1-4.09-7.94,22,22,0,0,1,.68-4.58c.35-1.49.82-2.92,1.08-4.34a24.3,24.3,0,0,0-.14-8.67,21.86,21.86,0,0,0-1.3-4.09,33.2,33.2,0,0,0-2.1-3.87,45.9,45.9,0,0,1-2.22-4,18.47,18.47,0,0,1-1.47-4.51,23.9,23.9,0,0,1-.3-4.67c0-1.53.08-3,.15-4.54.12-3,.29-6,.34-9A44.36,44.36,0,0,0,156.29,138.17Z" style="fill:#263238"></path><path d="M132.12,185.68C142.58,210,155.24,227.42,163.7,228c15.06,1.09,52.81-25.91,53.73-27.28,3.51-5.26-15.31-24-20-25.15-1-.24-30,24.52-32.38,23.56-2-.81-6.31-4.62-18.8-17.15C137.61,173.36,125.43,170.14,132.12,185.68Z" style="fill: rgb(255, 196, 192);"></path><path d="M207.38,164.37c4.56-2.19,9.61-5.07,14.9-5.54s10.4,6,10.62,8-.44,14.63-5.71,15.2-3.11-9.32-3.43-10.39-.67-2.45-1.65-2.24-17.49,10.34-17.49,10.34Z" style="fill: rgb(255, 196, 192);"></path><path d="M207.79,165.06c.3,0,13.82-7.13,19.1-7.6s10.41,6,10.62,8-.43,14.63-5.7,15.2-3.12-9.32-3.44-10.39-.66-2.45-1.65-2.24-17.49,10.34-17.49,10.34Z" style="fill: rgb(255, 196, 192);"></path><path d="M230,180.2a6.39,6.39,0,0,1-1.22-3,11.34,11.34,0,0,1-.17-3.39,18.62,18.62,0,0,0,.33-3,5.78,5.78,0,0,0-1-2.7c-.48-.7-1.23-.36-1.87-.05a26.67,26.67,0,0,0-2.73,1.6c-.95.61-1.89,1.24-2.83,1.86a27.45,27.45,0,0,0-2.88,2c-.06.06,0,.18.08.14a26.79,26.79,0,0,0,2.54-1.49c1-.58,1.91-1.15,2.87-1.71s1.77-1.09,2.68-1.6c.32-.17.95-.61,1.34-.56s.72,1,.84,1.32a5,5,0,0,1,.13,2.87,14.63,14.63,0,0,0-.24,3,7.68,7.68,0,0,0,.52,2.72,10.5,10.5,0,0,0,1.5,2.13C229.87,180.41,230,180.28,230,180.2Z" style="fill:#263238"></path><path d="M192.57,180.69s13.17-14.88,15.92-17.86c5.53-6,30.08-19.22,33.62-20s5.62,6.44-11,15.94c-8.75,5-9.82,10.45-9.33,13.35s3.86,8,8.75,7.37,7.3-8.16,11.72-9.45,2.34,7.3-.33,12.42a30.11,30.11,0,0,1-12.08,11.72c-4.07,2.05-16.59,9.13-16.59,9.13Z" style="fill: rgb(255, 196, 192);"></path><path d="M236.26,175.39c-1.7,1.63-3.59,3.71-6,4.07s-4.31-1.09-5.7-3a9.34,9.34,0,0,1-2-6.65,11.49,11.49,0,0,1,2.77-5.86,27.45,27.45,0,0,1,6.17-5.14c.1-.07,0-.21-.12-.15-2.15,1.25-8.86,4.88-9.59,11.24a9.57,9.57,0,0,0,2.11,6.76c1.3,1.84,3.08,3.55,5.48,3.48,2.93-.07,5.17-2.7,7.06-4.68C236.49,175.36,236.34,175.31,236.26,175.39Z" style="fill:#263238"></path><path d="M250.29,140.09a15.78,15.78,0,0,1,3.41-2.44,15.53,15.53,0,0,1,3.88-1.56,17.41,17.41,0,0,1-7.29,4Z" style="fill:#263238"></path><path d="M244.26,135.24a15.79,15.79,0,0,1,.68-4.13,15.38,15.38,0,0,1,1.64-3.84,15.25,15.25,0,0,1-.68,4.12A15.66,15.66,0,0,1,244.26,135.24Z" style="fill:#263238"></path><path d="M236.56,136.08a17.59,17.59,0,0,1-4-7.28,15.43,15.43,0,0,1,2.43,3.4A15.68,15.68,0,0,1,236.56,136.08Z" style="fill:#263238"></path><path d="M231.71,142.12a15.72,15.72,0,0,1-4.12-.68,15.32,15.32,0,0,1-3.85-1.65,17.6,17.6,0,0,1,8,2.33Z" style="fill:#263238"></path><path d="M246.29,153.82a15.67,15.67,0,0,1,2.43,3.4,15.31,15.31,0,0,1,1.56,3.88,15.43,15.43,0,0,1-2.43-3.4A15.68,15.68,0,0,1,246.29,153.82Z" style="fill:#263238"></path><path d="M251.14,147.78a17.7,17.7,0,0,1,8,2.33,15.79,15.79,0,0,1-4.13-.68A15.63,15.63,0,0,1,251.14,147.78Z" style="fill:#263238"></path><path d="M129.15,180.94c1.59,6.85,8.13,19.69,8.13,19.69L163,195.24s-15.65-16.59-26.81-22.16C131.72,170.84,127.54,174,129.15,180.94Z" style="fill:#984CFF"></path><path d="M129.15,180.94c1.59,6.85,8.13,19.69,8.13,19.69L163,195.24s-15.65-16.59-26.81-22.16C131.72,170.84,127.54,174,129.15,180.94Z" style="fill:#984CFF"></path><path d="M136.72,197.12c3.77-1.05,7.54-2.05,11.37-2.88,1.91-.42,3.82-.8,5.74-1.16s3.87-.51,5.78-.9c.11,0,.13.15,0,.17-1.93.28-3.83.83-5.74,1.21s-3.82.79-5.73,1.2c-3.81.81-7.63,1.62-11.42,2.52C136.64,197.31,136.62,197.15,136.72,197.12Z" style="fill:#263238"></path><path d="M145.66,182.59a8.22,8.22,0,0,1,1.11-1.89,8.41,8.41,0,0,1-.62,2.11A8.26,8.26,0,0,1,145,184.7,8.43,8.43,0,0,1,145.66,182.59Zm-10.51-2a8.11,8.11,0,0,0-1.9-1.12,8.29,8.29,0,0,0-2.11-.62,8.5,8.5,0,0,0,1.9,1.11A8.31,8.31,0,0,0,135.15,180.56Zm2.41,13.1a8.35,8.35,0,0,0,2.13-.56,7.94,7.94,0,0,0,1.94-1,8,8,0,0,0-2.13.56A8.33,8.33,0,0,0,137.56,193.66Zm12.49,2.21a8.22,8.22,0,0,0,.5,2l.52-.11A7.59,7.59,0,0,0,150.05,195.87Z" style="fill:#fff"></path><path d="M158.23,196.24l-20.95,4.39s-6.54-12.84-8.13-19.69c-.92-3.95,0-6.67,1.87-7.87Z" style="fill:#263238"></path><path d="M156.16,248.16S131.73,254,85.44,250c0,0,18.1-57.77,32.68-73.35,6.63-7.09,13.12-6,18.61-1.45,1.37,1.14,18.37,22.72,19.81,30.24,1.27,6.64-4.13,14-4.13,14Z" style="fill:#984CFF"></path><path d="M109.3,223.15a8.11,8.11,0,0,1,1.12-1.9,8.31,8.31,0,0,1-.63,2.11,8.5,8.5,0,0,1-1.11,1.9A8.29,8.29,0,0,1,109.3,223.15Zm19.3-22.66a8.54,8.54,0,0,0,1.12-1.9,8.29,8.29,0,0,0,.62-2.11,9.25,9.25,0,0,0-1.74,4ZM92.94,247.67a8.5,8.5,0,0,0,1.11-1.9,8.31,8.31,0,0,0,.63-2.11,7.91,7.91,0,0,0-1.12,1.89A8.37,8.37,0,0,0,92.94,247.67Zm44.26-16.54a8.54,8.54,0,0,0,1.12-1.9,8.29,8.29,0,0,0,.62-2.11,9.25,9.25,0,0,0-1.74,4ZM122.74,177a7.87,7.87,0,0,0,1.11-1.89,8,8,0,0,0,.63-2.12,8.13,8.13,0,0,0-1.11,1.9A8.43,8.43,0,0,0,122.74,177Zm3.69,45a8.07,8.07,0,0,0-1.9-1.11,7.91,7.91,0,0,0-2.11-.62,8.5,8.5,0,0,0,1.9,1.11A8.29,8.29,0,0,0,126.43,222Zm23.26-11.63a8.22,8.22,0,0,0-1.89-1.11,8.43,8.43,0,0,0-2.11-.63,7.91,7.91,0,0,0,1.89,1.12A8.41,8.41,0,0,0,149.69,210.34Zm-14.54-29.78a8.11,8.11,0,0,0-1.9-1.12,8.29,8.29,0,0,0-2.11-.62,8.5,8.5,0,0,0,1.9,1.11A8.31,8.31,0,0,0,135.15,180.56Zm1.11,65a8.07,8.07,0,0,0-1.9-1.11,7.8,7.8,0,0,0-2.11-.62,8.5,8.5,0,0,0,1.9,1.11A8.29,8.29,0,0,0,136.26,245.59ZM111,195.23a9.25,9.25,0,0,0-4-1.74,8.17,8.17,0,0,0,1.9,1.12A8.29,8.29,0,0,0,111,195.23Zm-4.1,44.15a8.11,8.11,0,0,0-1.9-1.12,8.29,8.29,0,0,0-2.11-.62,8.5,8.5,0,0,0,1.9,1.11A8.31,8.31,0,0,0,106.85,239.38Zm11.45-5.46a8.34,8.34,0,0,0,2.13-.55,8,8,0,0,0,1.94-1.06,9.24,9.24,0,0,0-4.07,1.61ZM147.63,224a8,8,0,0,0,2.13-.55,8.3,8.3,0,0,0,1.94-1,8,8,0,0,0-2.13.55A8.3,8.3,0,0,0,147.63,224Zm-32.35-16.86a8.45,8.45,0,0,0,2.13-.55,8.11,8.11,0,0,0,1.93-1.06,9.14,9.14,0,0,0-4.06,1.61Zm22.28-13.45a8.35,8.35,0,0,0,2.13-.56,7.94,7.94,0,0,0,1.94-1,8,8,0,0,0-2.13.56A8.33,8.33,0,0,0,137.56,193.66ZM93.79,229a8.46,8.46,0,0,0,2.13-.56,8.07,8.07,0,0,0,1.93-1A9.14,9.14,0,0,0,93.79,229Zm8-20.85a8,8,0,0,0,.55,2.13,8.44,8.44,0,0,0,1,1.93,8,8,0,0,0-.55-2.13A8.44,8.44,0,0,0,101.76,208.13Zm32.84,3a9.07,9.07,0,0,0,1.6,4.07,8,8,0,0,0-.55-2.13A8.3,8.3,0,0,0,134.6,211.16ZM147,239.65a9.24,9.24,0,0,0,1.61,4.07,8,8,0,0,0-.56-2.13A8.13,8.13,0,0,0,147,239.65Zm-31.67,4.63a8.46,8.46,0,0,0,.56,2.13,8.07,8.07,0,0,0,1.05,1.93,8.46,8.46,0,0,0-.56-2.13A8.07,8.07,0,0,0,115.29,244.28Zm3.27-59.63a8.46,8.46,0,0,0,.56,2.13,8.07,8.07,0,0,0,1,1.93,8.46,8.46,0,0,0-.56-2.13A8.07,8.07,0,0,0,118.56,184.65Zm31.49,11.22a8.46,8.46,0,0,0,.56,2.13,8.07,8.07,0,0,0,1,1.93,9.14,9.14,0,0,0-1.61-4.06Z" style="fill:#fff"></path><path d="M126.08,173.75c.06,1.28,4.44,10.32,10.09,11.09,1.84.25,3.64-9.74,3.64-9.74l.3-.7,4.22-9.9-10.69-10-1.56-1.35s-1,2.78-2.15,6.26c-.06.16-.11.32-.17.49s-.14.38-.2.57c-.18.51-.37,1-.54,1.57s-.27.8-.39,1.23-.26.84-.39,1.27A68.63,68.63,0,0,0,126.08,173.75Z" style="fill: rgb(255, 196, 192);"></path><path d="M129.93,159.39a21.61,21.61,0,0,0,10.18,15l4.22-9.9-10.69-10-1.56-1.35S131.11,155.91,129.93,159.39Z" style="fill:#263238"></path><path d="M159.93,147.47c2.46,18.71-8.47,22.3-12.5,22.83-3.67.48-16.21,1.64-20.59-16.72s3.53-25.42,11.86-27S157.46,128.75,159.93,147.47Z" style="fill: rgb(255, 196, 192);"></path><path d="M152.75,158.18a4.84,4.84,0,0,1-1.61,1.81,2.22,2.22,0,0,1-1.28.31c-1-.07-1.15-.92-1.12-1.68a5.33,5.33,0,0,1,.21-1.19A6.19,6.19,0,0,0,152.75,158.18Z" style="fill:#263238"></path><path d="M151.14,160a2.22,2.22,0,0,1-1.28.31c-1-.07-1.15-.92-1.12-1.68A2.23,2.23,0,0,1,151.14,160Z" style="fill:#ff99ba"></path><path d="M156.86,144.58c-.45,0-.86-.08-1.3-.12a2.14,2.14,0,0,1-1.3-.39.66.66,0,0,1-.08-.81,1.65,1.65,0,0,1,1.59-.57,2.51,2.51,0,0,1,1.62.69A.72.72,0,0,1,156.86,144.58Z" style="fill:#263238"></path><path d="M144,146a11.24,11.24,0,0,0,1.24-.41,2.13,2.13,0,0,0,1.18-.65.68.68,0,0,0-.09-.82,1.66,1.66,0,0,0-1.67-.2,2.37,2.37,0,0,0-1.43,1A.71.71,0,0,0,144,146Z" style="fill:#263238"></path><path d="M147.47,150.23s-.1.07-.09.13c.21,1.27.24,2.75-.86,3.33,0,0,0,.08,0,.07C147.92,153.37,147.87,151.4,147.47,150.23Z" style="fill:#263238"></path><path d="M146.15,149.05c-2.07.12-1.68,4.25.24,4.14S147.89,149,146.15,149.05Z" style="fill:#263238"></path><path d="M145.36,149.35c-.34.26-.65.71-1.08.79s-.92-.3-1.29-.68c0,0-.07,0-.07,0,.06.79.44,1.58,1.3,1.62s1.28-.72,1.4-1.53C145.65,149.44,145.5,149.24,145.36,149.35Z" style="fill:#263238"></path><path d="M154.55,149.3c0-.05.11,0,.11.1.07,1.28.37,2.74,1.56,3.07,0,0,0,.07,0,.07C154.79,152.46,154.41,150.52,154.55,149.3Z" style="fill:#263238"></path><path d="M155.58,147.86c2-.33,2.56,3.78.67,4.09S153.87,148.14,155.58,147.86Z" style="fill:#263238"></path><path d="M156.48,148c.35.18.72.54,1.11.51s.73-.51,1-1c0-.05.06,0,.07,0,.12.79,0,1.64-.78,1.89s-1.26-.39-1.55-1.15C156.25,148.19,156.33,148,156.48,148Z" style="fill:#263238"></path><path d="M148.3,160.75c.32.29.65.68,1.12.7a3.28,3.28,0,0,0,1.36-.39s.08,0,.06.07a1.74,1.74,0,0,1-1.6.77,1.37,1.37,0,0,1-1.06-1.09C148.16,160.74,148.25,160.71,148.3,160.75Z" style="fill:#263238"></path><path d="M153.16,155.57s.46,1.88.56,2.78c0,.08-.21.14-.51.2h0a4.28,4.28,0,0,1-4.32-1.16.09.09,0,0,1,.12-.14,6.5,6.5,0,0,0,4,.71c0-.26-.91-3.2-.77-3.22a8,8,0,0,1,2.1.24c-.86-3.94-2.34-7.72-3.13-11.66a.13.13,0,0,1,.23-.09,65.61,65.61,0,0,1,3.9,12.43C155.46,156.16,153.53,155.68,153.16,155.57Z" style="fill:#263238"></path><path d="M128.42,154.85c2-.46,6.33-6.92,4.84-16.72,0,0,.73,8.89.29,10.29s2.42-3.63,1.33-11.55a32.44,32.44,0,0,0,8.79,2.83c3.9.41,6.17,0,6.39-.32s-5.55-1.12-7.32-2.58c0,0,10.68,2.94,15.31,2.52.53,0-.67-11-8.5-14.43s-18.17,3.44-20.69,6.85c0,0-3.44,1.1-6.4,7S126.26,155.34,128.42,154.85Z" style="fill:#263238"></path><path d="M144.55,156.87a5.92,5.92,0,1,1,5.76-7.38h0a5.94,5.94,0,0,1-4.29,7.2A6.16,6.16,0,0,1,144.55,156.87Zm0-11.06a5.57,5.57,0,0,0-1.27.15,5.16,5.16,0,1,0,1.27-.15Z" style="fill:#455a64"></path><path d="M158.05,155.24c-2.26,0-4.32-2.33-4.67-5.4a7.11,7.11,0,0,1,.77-4.26,3.69,3.69,0,0,1,6.28-.72,7,7,0,0,1,1.71,4c.38,3.25-1.29,6.11-3.7,6.39A2.55,2.55,0,0,1,158.05,155.24Zm-.57-11-.3,0a3.13,3.13,0,0,0-2.34,1.73,6.3,6.3,0,0,0-.67,3.78c.32,2.81,2.19,4.91,4.18,4.68s3.33-2.7,3-5.51a6.27,6.27,0,0,0-1.52-3.52A3.24,3.24,0,0,0,157.48,144.22Z" style="fill:#455a64"></path><path d="M150.19,150.2l-.57-.55c.8-.85,2.75-2.09,4.37-.72l-.52.6C152,148.3,150.27,150.12,150.19,150.2Z" style="fill:#455a64"></path><path d="M124.14,154.73l-.74-.29c.14-.34,1.33-3.38,3.06-3.87s12.27-.68,12.72-.68l0,.79c-3.06.06-11.28.3-12.53.65S124.46,153.89,124.14,154.73Z" style="fill:#455a64"></path><path d="M127.71,160.49a3.9,3.9,0,0,0,.89.18,2.93,2.93,0,0,0,.89,0,2.68,2.68,0,0,0,1.07-.4,3.31,3.31,0,0,0,1.35-1.68l-1.26-5s-4.39-5.7-7-4.11S124.52,159.46,127.71,160.49Z" style="fill: rgb(255, 196, 192);"></path><path d="M124.71,151.86s0,.07,0,.08c2.24.79,3.49,2.78,4.39,4.86a1.75,1.75,0,0,0-2.65-.36c-.06,0,0,.13.06.11a2,2,0,0,1,2.19.59,9.21,9.21,0,0,1,1.11,1.7c.11.19.46.07.38-.15l0-.05C130.09,155.83,127.74,152,124.71,151.86Z" style="fill:#263238"></path><path d="M127.94,159.68a.88.88,0,1,0,.64-1.06A.87.87,0,0,0,127.94,159.68Z" style="fill:#fff"></path><path d="M126.09,158.44a.6.6,0,0,0,.74.45.61.61,0,0,0,.46-.75.63.63,0,0,0-.75-.45A.61.61,0,0,0,126.09,158.44Z" style="fill:#fff"></path><path d="M115,180c-12.47,20.17-28.74,53.83-19.41,60C111,250.24,153.06,252.79,162.68,253c4.15.09,9.68-27.55,6.59-30.74s-47.12-1.25-47.7-3.91c-.33-1.51,1.92-14.94,4.57-31.64C129.19,167.44,118.6,174.22,115,180Z" style="fill: rgb(255, 196, 192);"></path><path d="M166.88,216.49c10-1.39,12.82-.21,20.66-5.89,5.14-3.72,9.73-2,6.79,3.88-4.8,9.68-17.36,14.2-22.16,14.51Z" style="fill: rgb(255, 196, 192);"></path><path d="M140.24,226.15s11.27-6.26,21.81-8.8c7.29-1.77,23.58-3.83,39.16,12.24,3.69,3.81,6.26,11.86-2,7.83-5.89-2.86-8.77-6.46-12.5-7.5,0,0,2.05,10.63-1.91,14.18a98,98,0,0,1-11,8.55,21.05,21.05,0,0,1-1.79-1.92s-4,3-11.57,2.25Z" style="fill: rgb(255, 196, 192);"></path><path d="M169.28,216.78c3.48,1.81,10.8,5.79,15.66,11.12,5.4,5.93,14.2,18.8,9.78,22.74-3.24,2.88-7-1.73-7-1.73s2.52,6.08-1,8c-3.18,1.79-5.9-1.95-5.9-1.95s.89,3.95-2.51,5.09c-4.09,1.37-5.29-7.15-10.63-9.34C166.47,250.27,169.28,216.78,169.28,216.78Z" style="fill: rgb(255, 196, 192);"></path><path d="M177.5,232.59c3,2.25,8.5,9.1,10,16.19,0,.16-.07.27-.13.13a78.79,78.79,0,0,0-9.94-16.27S177.47,232.57,177.5,232.59Z" style="fill:#263238"></path><path d="M171.85,238.33c2.39,2.2,7.74,9.51,9,16.75,0,.16-.08.27-.14.13a84.28,84.28,0,0,0-9-16.84S171.82,238.3,171.85,238.33Z" style="fill:#263238"></path><path d="M152.88,220.3a55.54,55.54,0,0,1,13.8-3.92c2.38-.32,4.78-.47,7.16-.72a27.42,27.42,0,0,0,7-1.48,30.59,30.59,0,0,0,6.2-3.49,20.77,20.77,0,0,1,3.14-1.83,4.81,4.81,0,0,1,3.67-.25,2.42,2.42,0,0,1,1.49,1.23,3.33,3.33,0,0,1,.23,1.91,10.34,10.34,0,0,1-1.25,3.45,21.9,21.9,0,0,1-4.47,5.72l-.05-.48a56.77,56.77,0,0,1,9.15,6.38,26.63,26.63,0,0,1,3.82,4.12,11.15,11.15,0,0,1,2.43,5.14,3.19,3.19,0,0,1-.25,1.54,2.4,2.4,0,0,1-1.12,1.15,4.21,4.21,0,0,1-3,0,20.31,20.31,0,0,1-5-2.67c-1.53-1.08-3-2.24-4.47-3.3a26,26,0,0,0-2.3-1.51,7.61,7.61,0,0,0-2.43-1l.29-.53a69.49,69.49,0,0,1,4.75,6.45,34.18,34.18,0,0,1,3.59,7.18,15.71,15.71,0,0,1,1,3.93,5.24,5.24,0,0,1-.22,2.07,3.44,3.44,0,0,1-1.3,1.68,4.2,4.2,0,0,1-4,.45,8.72,8.72,0,0,1-3.25-2.44l.38-.24a12.49,12.49,0,0,1,1,3.84,4.85,4.85,0,0,1-1.09,3.81,3.71,3.71,0,0,1-3.78,1,7.54,7.54,0,0,1-3.25-2.26L181,255a6.11,6.11,0,0,1-.05,2.41,3.71,3.71,0,0,1-1.22,2.07,4,4,0,0,1-2.22.89,3,3,0,0,1-2.15-1,24,24,0,0,1-2.78-3.82,15.59,15.59,0,0,0-3-3.65,15.88,15.88,0,0,1,3,3.6,23.19,23.19,0,0,0,2.83,3.75,2.82,2.82,0,0,0,2,.92,3.69,3.69,0,0,0,2.07-.87,4.44,4.44,0,0,0,1.11-4.22l-.11-.56.39.41a7.37,7.37,0,0,0,3.11,2.12,3.34,3.34,0,0,0,3.39-.9,4.51,4.51,0,0,0,1-3.5,12.33,12.33,0,0,0-1-3.69l-.54-1.28.92,1a8.21,8.21,0,0,0,3.07,2.3,3.76,3.76,0,0,0,3.57-.42,3.39,3.39,0,0,0,1.27-3.3,15.07,15.07,0,0,0-1-3.79,32.79,32.79,0,0,0-3.58-7,66.75,66.75,0,0,0-4.73-6.36l-.56-.67.84.14a8,8,0,0,1,2.69,1.07c.81.47,1.59,1,2.35,1.53,1.52,1.07,3,2.23,4.48,3.27A19.1,19.1,0,0,0,201,238a3.5,3.5,0,0,0,2.44.09,1.92,1.92,0,0,0,1-2,10.51,10.51,0,0,0-2.27-4.78,26.66,26.66,0,0,0-3.69-4,57.32,57.32,0,0,0-9-6.36l-.36-.21.31-.27a21.36,21.36,0,0,0,4.37-5.53,9.91,9.91,0,0,0,1.21-3.26,2.81,2.81,0,0,0-.17-1.61,2,2,0,0,0-1.2-1,4.34,4.34,0,0,0-3.31.22,20.5,20.5,0,0,0-3.07,1.77,31.15,31.15,0,0,1-6.32,3.5c-4.59,1.71-9.5,1.49-14.23,2.05A56,56,0,0,0,152.88,220.3Z" style="fill:#263238"></path><path d="M99.08,205.6l26.68-2.81s1.83-13.36,1.8-20.89c0-10-3.75-12.29-11.76-3.06C110.44,185,99.08,205.6,99.08,205.6Z" style="fill:#984CFF"></path><path d="M123.37,174.86a8.13,8.13,0,0,1,1.11-1.9,8,8,0,0,1-.63,2.12,7.87,7.87,0,0,1-1.11,1.89A8.43,8.43,0,0,1,123.37,174.86ZM111,195.23a9.25,9.25,0,0,0-4-1.74,8.17,8.17,0,0,0,1.9,1.12A8.29,8.29,0,0,0,111,195.23Zm7.61-10.58a8.46,8.46,0,0,0,.56,2.13,8.07,8.07,0,0,0,1,1.93,8.46,8.46,0,0,0-.56-2.13A8.07,8.07,0,0,0,118.56,184.65Z" style="fill:#fff"></path><path d="M122.5,203.14c.29-.08,3-.46,3.22-.43.18-1.58.33-3.16.52-4.73.1-.79.21-1.58.33-2.36s.24-1.85.36-2.61c0-.12.18-.11.17,0-.06,1-.13,1.76-.18,2.63s-.12,1.56-.2,2.33c-.17,1.65-.29,3.4-.55,5a25.44,25.44,0,0,1-3.66.22C122.46,203.23,122.46,203.15,122.5,203.14Z" style="fill:#263238"></path><path d="M101.53,202.78c3.85-.68,7.7-1.3,11.59-1.75,1.94-.22,3.88-.42,5.82-.58s3.91-.13,5.85-.33c.1,0,.11.17,0,.17-1.94.09-3.89.45-5.83.65s-3.88.4-5.82.62c-3.88.43-7.75.86-11.62,1.39C101.43,203,101.42,202.8,101.53,202.78Z" style="fill:#263238"></path></g></svg>